G04 #@! TF.FileFunction,Legend,Top*
%FSLAX46Y46*%
G04 Gerber Fmt 4.6, Leading zero omitted, Abs format (unit mm)*
G04 Created by KiCad (PCBNEW 4.0.6) date 04/30/18 08:06:27*
%MOMM*%
%LPD*%
G01*
G04 APERTURE LIST*
%ADD10C,0.100000*%
%ADD11C,0.200000*%
%ADD12C,0.152400*%
%ADD13C,0.127000*%
%ADD14C,0.120000*%
%ADD15C,0.203200*%
%ADD16C,0.304800*%
%ADD17C,0.050000*%
%ADD18C,0.150000*%
G04 APERTURE END LIST*
D10*
D11*
X97924968Y-82499200D02*
G75*
G03X97924968Y-82499200I-287368J0D01*
G01*
X87731600Y-68122800D02*
G75*
G03X87731600Y-68122800I-254000J0D01*
G01*
X105629687Y-49326800D02*
G75*
G03X105629687Y-49326800I-321287J0D01*
G01*
D12*
X79032100Y-62649100D02*
X78727300Y-62649100D01*
X78727300Y-62649100D02*
X78117700Y-62649100D01*
X78117700Y-62649100D02*
X77812900Y-62649100D01*
X78727300Y-62649100D02*
G75*
G02X78117700Y-62649100I-304800J0D01*
G01*
D13*
X97898000Y-58763000D02*
X96158000Y-58763000D01*
X94388000Y-57458000D02*
X94388000Y-56588000D01*
X97898000Y-55283000D02*
X96158000Y-55283000D01*
X99668000Y-57458000D02*
X99668000Y-56588000D01*
D12*
X80086200Y-75806300D02*
X80086200Y-76187300D01*
X86918800Y-76187300D02*
X87299800Y-76187300D01*
X87299800Y-69354700D02*
X87299800Y-68973700D01*
X80086200Y-68973700D02*
X80086200Y-69354700D01*
X80086200Y-76187300D02*
X80467200Y-76187300D01*
X87299800Y-76187300D02*
X87299800Y-75806300D01*
X87299800Y-68973700D02*
X86918800Y-68973700D01*
X80467200Y-68973700D02*
X80086200Y-68973700D01*
X82575400Y-42989500D02*
X86334600Y-42989500D01*
X86334600Y-37909500D02*
X84759800Y-37909500D01*
X84759800Y-37909500D02*
X84150200Y-37909500D01*
X84150200Y-37909500D02*
X82575400Y-37909500D01*
X84759800Y-37909500D02*
G75*
G02X84150200Y-37909500I-304800J0D01*
G01*
X106197400Y-45745400D02*
X105943400Y-45745400D01*
X108940600Y-45999400D02*
X108940600Y-45745400D01*
X108686600Y-48742600D02*
X108940600Y-48742600D01*
X105943400Y-48488600D02*
X105943400Y-48742600D01*
X108940600Y-48742600D02*
X108940600Y-48488600D01*
X108940600Y-45745400D02*
X108686600Y-45745400D01*
X105943400Y-45745400D02*
X105943400Y-45999400D01*
X105943400Y-48742600D02*
X106197400Y-48742600D01*
D14*
X84006500Y-65506500D02*
X83506500Y-65506500D01*
X83506500Y-66446500D02*
X84006500Y-66446500D01*
X92037000Y-69655500D02*
X92037000Y-69155500D01*
X91097000Y-69155500D02*
X91097000Y-69655500D01*
X87507000Y-79464000D02*
X88007000Y-79464000D01*
X88007000Y-78524000D02*
X87507000Y-78524000D01*
X76492000Y-75378500D02*
X76492000Y-75878500D01*
X77432000Y-75878500D02*
X77432000Y-75378500D01*
X72936000Y-38548500D02*
X72936000Y-39048500D01*
X73876000Y-39048500D02*
X73876000Y-38548500D01*
X86864000Y-65506500D02*
X86364000Y-65506500D01*
X86364000Y-66446500D02*
X86864000Y-66446500D01*
X73879000Y-43338000D02*
X73879000Y-44038000D01*
X72679000Y-44038000D02*
X72679000Y-43338000D01*
X91532000Y-39909000D02*
X91532000Y-40609000D01*
X90332000Y-40609000D02*
X90332000Y-39909000D01*
X95063500Y-41322500D02*
X95063500Y-39322500D01*
X93023500Y-39322500D02*
X93023500Y-41322500D01*
X98519500Y-41691000D02*
X99219500Y-41691000D01*
X99219500Y-42891000D02*
X98519500Y-42891000D01*
X98203500Y-51209500D02*
X97503500Y-51209500D01*
X97503500Y-50009500D02*
X98203500Y-50009500D01*
X96579500Y-80238500D02*
X96079500Y-80238500D01*
X96079500Y-81178500D02*
X96579500Y-81178500D01*
X103564500Y-87477500D02*
X103064500Y-87477500D01*
X103064500Y-88417500D02*
X103564500Y-88417500D01*
X58509000Y-82609500D02*
X58509000Y-82109500D01*
X57569000Y-82109500D02*
X57569000Y-82609500D01*
X112293500Y-47367000D02*
X112293500Y-46867000D01*
X111353500Y-46867000D02*
X111353500Y-47367000D01*
X115979500Y-47211500D02*
X115979500Y-47911500D01*
X114779500Y-47911500D02*
X114779500Y-47211500D01*
X101625500Y-56892000D02*
X101625500Y-56392000D01*
X100685500Y-56392000D02*
X100685500Y-56892000D01*
X92557500Y-57027000D02*
X92557500Y-57527000D01*
X93497500Y-57527000D02*
X93497500Y-57027000D01*
X105631500Y-68932500D02*
X106331500Y-68932500D01*
X106331500Y-70132500D02*
X105631500Y-70132500D01*
X105756000Y-72357500D02*
X105756000Y-73057500D01*
X104556000Y-73057500D02*
X104556000Y-72357500D01*
X94301500Y-62319000D02*
X94801500Y-62319000D01*
X94801500Y-61379000D02*
X94301500Y-61379000D01*
X94767500Y-66734500D02*
X94767500Y-66234500D01*
X93827500Y-66234500D02*
X93827500Y-66734500D01*
X105956000Y-60646500D02*
X105956000Y-61146500D01*
X106896000Y-61146500D02*
X106896000Y-60646500D01*
X102048500Y-71653500D02*
X102548500Y-71653500D01*
X102548500Y-70713500D02*
X102048500Y-70713500D01*
X110359000Y-57188000D02*
X109859000Y-57188000D01*
X109859000Y-58128000D02*
X110359000Y-58128000D01*
X114169000Y-54584500D02*
X113669000Y-54584500D01*
X113669000Y-55524500D02*
X114169000Y-55524500D01*
X114846000Y-63440500D02*
X114846000Y-63940500D01*
X115786000Y-63940500D02*
X115786000Y-63440500D01*
X118614000Y-61252000D02*
X118114000Y-61252000D01*
X118114000Y-62192000D02*
X118614000Y-62192000D01*
X118804500Y-64490500D02*
X118304500Y-64490500D01*
X118304500Y-65430500D02*
X118804500Y-65430500D01*
X118304500Y-68542000D02*
X118804500Y-68542000D01*
X118804500Y-67602000D02*
X118304500Y-67602000D01*
X114550000Y-69888000D02*
X114050000Y-69888000D01*
X114050000Y-70828000D02*
X114550000Y-70828000D01*
X118677500Y-72428000D02*
X118177500Y-72428000D01*
X118177500Y-73368000D02*
X118677500Y-73368000D01*
X83181000Y-60871000D02*
X82681000Y-60871000D01*
X82681000Y-61811000D02*
X83181000Y-61811000D01*
X74320500Y-61845000D02*
X74320500Y-61345000D01*
X73380500Y-61345000D02*
X73380500Y-61845000D01*
X80603000Y-89493500D02*
X81703000Y-89493500D01*
X81703000Y-89493500D02*
X81703000Y-86893500D01*
X80603000Y-89493500D02*
X80603000Y-86893500D01*
X84794000Y-89430000D02*
X85894000Y-89430000D01*
X85894000Y-89430000D02*
X85894000Y-86830000D01*
X84794000Y-89430000D02*
X84794000Y-86830000D01*
D13*
X58315500Y-79587000D02*
X57370500Y-79587000D01*
X57370500Y-79587000D02*
X57370500Y-65447000D01*
X57370500Y-65447000D02*
X58315500Y-65447000D01*
X72320500Y-74317000D02*
X72320500Y-68617000D01*
D11*
X56805500Y-76327000D02*
G75*
G03X56805500Y-76327000I-100000J0D01*
G01*
D14*
X88977000Y-55243000D02*
X88977000Y-58243000D01*
X88977000Y-58243000D02*
X76377000Y-58243000D01*
X76377000Y-58243000D02*
X76377000Y-55243000D01*
X76377000Y-48643000D02*
X76377000Y-45643000D01*
X76377000Y-45643000D02*
X88977000Y-45643000D01*
X88977000Y-45643000D02*
X88977000Y-48643000D01*
X110609000Y-63926000D02*
X109609000Y-63926000D01*
X109609000Y-62566000D02*
X110609000Y-62566000D01*
X110609000Y-68117000D02*
X109609000Y-68117000D01*
X109609000Y-66757000D02*
X110609000Y-66757000D01*
X80473000Y-83240500D02*
X80473000Y-82240500D01*
X81833000Y-82240500D02*
X81833000Y-83240500D01*
X84664000Y-83240500D02*
X84664000Y-82240500D01*
X86024000Y-82240500D02*
X86024000Y-83240500D01*
X77716000Y-43034500D02*
X76716000Y-43034500D01*
X76716000Y-41674500D02*
X77716000Y-41674500D01*
X77652500Y-39478500D02*
X76652500Y-39478500D01*
X76652500Y-38118500D02*
X77652500Y-38118500D01*
X71318500Y-57105000D02*
X72318500Y-57105000D01*
X72318500Y-58465000D02*
X71318500Y-58465000D01*
X114001000Y-58920000D02*
X114001000Y-57920000D01*
X115361000Y-57920000D02*
X115361000Y-58920000D01*
X96243500Y-45455000D02*
X96243500Y-47255000D01*
X99463500Y-47255000D02*
X99463500Y-44805000D01*
X65465000Y-58966000D02*
X65465000Y-59496000D01*
X65465000Y-59496000D02*
X60265000Y-59496000D01*
X60265000Y-59496000D02*
X60265000Y-58966000D01*
X65465000Y-47206000D02*
X65465000Y-46676000D01*
X65465000Y-46676000D02*
X60265000Y-46676000D01*
X60265000Y-46676000D02*
X60265000Y-47206000D01*
X58845000Y-58966000D02*
X60265000Y-58966000D01*
D15*
X97882500Y-68037500D02*
X97570500Y-68037500D01*
X103724500Y-68037500D02*
X103724500Y-67725500D01*
X97570500Y-67725500D02*
X97570500Y-68037500D01*
X103724500Y-61883500D02*
X103412500Y-61883500D01*
X103724500Y-62195500D02*
X103724500Y-61883500D01*
X103724500Y-68037500D02*
X103412500Y-68037500D01*
X97570500Y-61883500D02*
X97570500Y-62195500D01*
X97882500Y-61883500D02*
X97570500Y-61883500D01*
D16*
X104264500Y-68400500D02*
G75*
G03X104264500Y-68400500I-127000J0D01*
G01*
D10*
X97703300Y-83582000D02*
G75*
G03X97703300Y-83582000I-125800J0D01*
G01*
D13*
X97877500Y-83282000D02*
X97877500Y-83082000D01*
X98477500Y-83082000D02*
X97877500Y-83082000D01*
X100277500Y-83082000D02*
X100877500Y-83082000D01*
X100877500Y-83082000D02*
X100877500Y-83282000D01*
X100177500Y-86082000D02*
X100877500Y-86082000D01*
X100877500Y-86082000D02*
X100877500Y-85882000D01*
X97877500Y-85882000D02*
X97877500Y-86082000D01*
X97877500Y-86082000D02*
X98577500Y-86082000D01*
D17*
X76936786Y-60366357D02*
X76936786Y-61337786D01*
X76993929Y-61452071D01*
X77051072Y-61509214D01*
X77165358Y-61566357D01*
X77393929Y-61566357D01*
X77508215Y-61509214D01*
X77565358Y-61452071D01*
X77622501Y-61337786D01*
X77622501Y-60366357D01*
X78822501Y-61566357D02*
X78136786Y-61566357D01*
X78479644Y-61566357D02*
X78479644Y-60366357D01*
X78365358Y-60537786D01*
X78251072Y-60652071D01*
X78136786Y-60709214D01*
X79279643Y-60480643D02*
X79336786Y-60423500D01*
X79451072Y-60366357D01*
X79736786Y-60366357D01*
X79851072Y-60423500D01*
X79908215Y-60480643D01*
X79965358Y-60594929D01*
X79965358Y-60709214D01*
X79908215Y-60880643D01*
X79222501Y-61566357D01*
X79965358Y-61566357D01*
X96645901Y-59797895D02*
X96645901Y-60179994D01*
X96378431Y-59377585D02*
X96645901Y-59797895D01*
X96913370Y-59377585D01*
X97601149Y-60179994D02*
X97142630Y-60179994D01*
X97371890Y-60179994D02*
X97371890Y-59377585D01*
X97295470Y-59492215D01*
X97219050Y-59568635D01*
X97142630Y-59606845D01*
X89334600Y-74339144D02*
X90663409Y-74339144D01*
X90819739Y-74260979D01*
X90897905Y-74182813D01*
X90976070Y-74026483D01*
X90976070Y-73713822D01*
X90897905Y-73557491D01*
X90819739Y-73479326D01*
X90663409Y-73401161D01*
X89334600Y-73401161D01*
X89490930Y-72697674D02*
X89412765Y-72619509D01*
X89334600Y-72463178D01*
X89334600Y-72072352D01*
X89412765Y-71916022D01*
X89490930Y-71837856D01*
X89647261Y-71759691D01*
X89803591Y-71759691D01*
X90038087Y-71837856D01*
X90976070Y-72775839D01*
X90976070Y-71759691D01*
X83439143Y-35818071D02*
X83439143Y-37032357D01*
X83510571Y-37175214D01*
X83582000Y-37246643D01*
X83724857Y-37318071D01*
X84010571Y-37318071D01*
X84153429Y-37246643D01*
X84224857Y-37175214D01*
X84296286Y-37032357D01*
X84296286Y-35818071D01*
X85796286Y-37318071D02*
X84939143Y-37318071D01*
X85367715Y-37318071D02*
X85367715Y-35818071D01*
X85224858Y-36032357D01*
X85082000Y-36175214D01*
X84939143Y-36246643D01*
X103403524Y-44246095D02*
X103403524Y-45298476D01*
X103465429Y-45422286D01*
X103527333Y-45484190D01*
X103651143Y-45546095D01*
X103898762Y-45546095D01*
X104022571Y-45484190D01*
X104084476Y-45422286D01*
X104146381Y-45298476D01*
X104146381Y-44246095D01*
X105322572Y-44679429D02*
X105322572Y-45546095D01*
X105013048Y-44184190D02*
X104703524Y-45112762D01*
X105508286Y-45112762D01*
D18*
X83589834Y-65063643D02*
X83542215Y-65111262D01*
X83399358Y-65158881D01*
X83304120Y-65158881D01*
X83161262Y-65111262D01*
X83066024Y-65016024D01*
X83018405Y-64920786D01*
X82970786Y-64730310D01*
X82970786Y-64587452D01*
X83018405Y-64396976D01*
X83066024Y-64301738D01*
X83161262Y-64206500D01*
X83304120Y-64158881D01*
X83399358Y-64158881D01*
X83542215Y-64206500D01*
X83589834Y-64254119D01*
X84542215Y-65158881D02*
X83970786Y-65158881D01*
X84256500Y-65158881D02*
X84256500Y-64158881D01*
X84161262Y-64301738D01*
X84066024Y-64396976D01*
X83970786Y-64444595D01*
X93194143Y-69572166D02*
X93241762Y-69619785D01*
X93289381Y-69762642D01*
X93289381Y-69857880D01*
X93241762Y-70000738D01*
X93146524Y-70095976D01*
X93051286Y-70143595D01*
X92860810Y-70191214D01*
X92717952Y-70191214D01*
X92527476Y-70143595D01*
X92432238Y-70095976D01*
X92337000Y-70000738D01*
X92289381Y-69857880D01*
X92289381Y-69762642D01*
X92337000Y-69619785D01*
X92384619Y-69572166D01*
X92384619Y-69191214D02*
X92337000Y-69143595D01*
X92289381Y-69048357D01*
X92289381Y-68810261D01*
X92337000Y-68715023D01*
X92384619Y-68667404D01*
X92479857Y-68619785D01*
X92575095Y-68619785D01*
X92717952Y-68667404D01*
X93289381Y-69238833D01*
X93289381Y-68619785D01*
X87590334Y-80621143D02*
X87542715Y-80668762D01*
X87399858Y-80716381D01*
X87304620Y-80716381D01*
X87161762Y-80668762D01*
X87066524Y-80573524D01*
X87018905Y-80478286D01*
X86971286Y-80287810D01*
X86971286Y-80144952D01*
X87018905Y-79954476D01*
X87066524Y-79859238D01*
X87161762Y-79764000D01*
X87304620Y-79716381D01*
X87399858Y-79716381D01*
X87542715Y-79764000D01*
X87590334Y-79811619D01*
X87923667Y-79716381D02*
X88542715Y-79716381D01*
X88209381Y-80097333D01*
X88352239Y-80097333D01*
X88447477Y-80144952D01*
X88495096Y-80192571D01*
X88542715Y-80287810D01*
X88542715Y-80525905D01*
X88495096Y-80621143D01*
X88447477Y-80668762D01*
X88352239Y-80716381D01*
X88066524Y-80716381D01*
X87971286Y-80668762D01*
X87923667Y-80621143D01*
X76049143Y-75795166D02*
X76096762Y-75842785D01*
X76144381Y-75985642D01*
X76144381Y-76080880D01*
X76096762Y-76223738D01*
X76001524Y-76318976D01*
X75906286Y-76366595D01*
X75715810Y-76414214D01*
X75572952Y-76414214D01*
X75382476Y-76366595D01*
X75287238Y-76318976D01*
X75192000Y-76223738D01*
X75144381Y-76080880D01*
X75144381Y-75985642D01*
X75192000Y-75842785D01*
X75239619Y-75795166D01*
X75477714Y-74938023D02*
X76144381Y-74938023D01*
X75096762Y-75176119D02*
X75811048Y-75414214D01*
X75811048Y-74795166D01*
X72493143Y-38965166D02*
X72540762Y-39012785D01*
X72588381Y-39155642D01*
X72588381Y-39250880D01*
X72540762Y-39393738D01*
X72445524Y-39488976D01*
X72350286Y-39536595D01*
X72159810Y-39584214D01*
X72016952Y-39584214D01*
X71826476Y-39536595D01*
X71731238Y-39488976D01*
X71636000Y-39393738D01*
X71588381Y-39250880D01*
X71588381Y-39155642D01*
X71636000Y-39012785D01*
X71683619Y-38965166D01*
X71588381Y-38060404D02*
X71588381Y-38536595D01*
X72064571Y-38584214D01*
X72016952Y-38536595D01*
X71969333Y-38441357D01*
X71969333Y-38203261D01*
X72016952Y-38108023D01*
X72064571Y-38060404D01*
X72159810Y-38012785D01*
X72397905Y-38012785D01*
X72493143Y-38060404D01*
X72540762Y-38108023D01*
X72588381Y-38203261D01*
X72588381Y-38441357D01*
X72540762Y-38536595D01*
X72493143Y-38584214D01*
X86510834Y-67603643D02*
X86463215Y-67651262D01*
X86320358Y-67698881D01*
X86225120Y-67698881D01*
X86082262Y-67651262D01*
X85987024Y-67556024D01*
X85939405Y-67460786D01*
X85891786Y-67270310D01*
X85891786Y-67127452D01*
X85939405Y-66936976D01*
X85987024Y-66841738D01*
X86082262Y-66746500D01*
X86225120Y-66698881D01*
X86320358Y-66698881D01*
X86463215Y-66746500D01*
X86510834Y-66794119D01*
X87367977Y-66698881D02*
X87177500Y-66698881D01*
X87082262Y-66746500D01*
X87034643Y-66794119D01*
X86939405Y-66936976D01*
X86891786Y-67127452D01*
X86891786Y-67508405D01*
X86939405Y-67603643D01*
X86987024Y-67651262D01*
X87082262Y-67698881D01*
X87272739Y-67698881D01*
X87367977Y-67651262D01*
X87415596Y-67603643D01*
X87463215Y-67508405D01*
X87463215Y-67270310D01*
X87415596Y-67175071D01*
X87367977Y-67127452D01*
X87272739Y-67079833D01*
X87082262Y-67079833D01*
X86987024Y-67127452D01*
X86939405Y-67175071D01*
X86891786Y-67270310D01*
X74886143Y-43854666D02*
X74933762Y-43902285D01*
X74981381Y-44045142D01*
X74981381Y-44140380D01*
X74933762Y-44283238D01*
X74838524Y-44378476D01*
X74743286Y-44426095D01*
X74552810Y-44473714D01*
X74409952Y-44473714D01*
X74219476Y-44426095D01*
X74124238Y-44378476D01*
X74029000Y-44283238D01*
X73981381Y-44140380D01*
X73981381Y-44045142D01*
X74029000Y-43902285D01*
X74076619Y-43854666D01*
X73981381Y-43521333D02*
X73981381Y-42854666D01*
X74981381Y-43283238D01*
X92539143Y-40425666D02*
X92586762Y-40473285D01*
X92634381Y-40616142D01*
X92634381Y-40711380D01*
X92586762Y-40854238D01*
X92491524Y-40949476D01*
X92396286Y-40997095D01*
X92205810Y-41044714D01*
X92062952Y-41044714D01*
X91872476Y-40997095D01*
X91777238Y-40949476D01*
X91682000Y-40854238D01*
X91634381Y-40711380D01*
X91634381Y-40616142D01*
X91682000Y-40473285D01*
X91729619Y-40425666D01*
X92062952Y-39854238D02*
X92015333Y-39949476D01*
X91967714Y-39997095D01*
X91872476Y-40044714D01*
X91824857Y-40044714D01*
X91729619Y-39997095D01*
X91682000Y-39949476D01*
X91634381Y-39854238D01*
X91634381Y-39663761D01*
X91682000Y-39568523D01*
X91729619Y-39520904D01*
X91824857Y-39473285D01*
X91872476Y-39473285D01*
X91967714Y-39520904D01*
X92015333Y-39568523D01*
X92062952Y-39663761D01*
X92062952Y-39854238D01*
X92110571Y-39949476D01*
X92158190Y-39997095D01*
X92253429Y-40044714D01*
X92443905Y-40044714D01*
X92539143Y-39997095D01*
X92586762Y-39949476D01*
X92634381Y-39854238D01*
X92634381Y-39663761D01*
X92586762Y-39568523D01*
X92539143Y-39520904D01*
X92443905Y-39473285D01*
X92253429Y-39473285D01*
X92158190Y-39520904D01*
X92110571Y-39568523D01*
X92062952Y-39663761D01*
X96150643Y-40489166D02*
X96198262Y-40536785D01*
X96245881Y-40679642D01*
X96245881Y-40774880D01*
X96198262Y-40917738D01*
X96103024Y-41012976D01*
X96007786Y-41060595D01*
X95817310Y-41108214D01*
X95674452Y-41108214D01*
X95483976Y-41060595D01*
X95388738Y-41012976D01*
X95293500Y-40917738D01*
X95245881Y-40774880D01*
X95245881Y-40679642D01*
X95293500Y-40536785D01*
X95341119Y-40489166D01*
X96245881Y-40012976D02*
X96245881Y-39822500D01*
X96198262Y-39727261D01*
X96150643Y-39679642D01*
X96007786Y-39584404D01*
X95817310Y-39536785D01*
X95436357Y-39536785D01*
X95341119Y-39584404D01*
X95293500Y-39632023D01*
X95245881Y-39727261D01*
X95245881Y-39917738D01*
X95293500Y-40012976D01*
X95341119Y-40060595D01*
X95436357Y-40108214D01*
X95674452Y-40108214D01*
X95769690Y-40060595D01*
X95817310Y-40012976D01*
X95864929Y-39917738D01*
X95864929Y-39727261D01*
X95817310Y-39632023D01*
X95769690Y-39584404D01*
X95674452Y-39536785D01*
X98226643Y-41398143D02*
X98179024Y-41445762D01*
X98036167Y-41493381D01*
X97940929Y-41493381D01*
X97798071Y-41445762D01*
X97702833Y-41350524D01*
X97655214Y-41255286D01*
X97607595Y-41064810D01*
X97607595Y-40921952D01*
X97655214Y-40731476D01*
X97702833Y-40636238D01*
X97798071Y-40541000D01*
X97940929Y-40493381D01*
X98036167Y-40493381D01*
X98179024Y-40541000D01*
X98226643Y-40588619D01*
X99179024Y-41493381D02*
X98607595Y-41493381D01*
X98893309Y-41493381D02*
X98893309Y-40493381D01*
X98798071Y-40636238D01*
X98702833Y-40731476D01*
X98607595Y-40779095D01*
X99798071Y-40493381D02*
X99893310Y-40493381D01*
X99988548Y-40541000D01*
X100036167Y-40588619D01*
X100083786Y-40683857D01*
X100131405Y-40874333D01*
X100131405Y-41112429D01*
X100083786Y-41302905D01*
X100036167Y-41398143D01*
X99988548Y-41445762D01*
X99893310Y-41493381D01*
X99798071Y-41493381D01*
X99702833Y-41445762D01*
X99655214Y-41398143D01*
X99607595Y-41302905D01*
X99559976Y-41112429D01*
X99559976Y-40874333D01*
X99607595Y-40683857D01*
X99655214Y-40588619D01*
X99702833Y-40541000D01*
X99798071Y-40493381D01*
X97210643Y-52216643D02*
X97163024Y-52264262D01*
X97020167Y-52311881D01*
X96924929Y-52311881D01*
X96782071Y-52264262D01*
X96686833Y-52169024D01*
X96639214Y-52073786D01*
X96591595Y-51883310D01*
X96591595Y-51740452D01*
X96639214Y-51549976D01*
X96686833Y-51454738D01*
X96782071Y-51359500D01*
X96924929Y-51311881D01*
X97020167Y-51311881D01*
X97163024Y-51359500D01*
X97210643Y-51407119D01*
X98163024Y-52311881D02*
X97591595Y-52311881D01*
X97877309Y-52311881D02*
X97877309Y-51311881D01*
X97782071Y-51454738D01*
X97686833Y-51549976D01*
X97591595Y-51597595D01*
X99115405Y-52311881D02*
X98543976Y-52311881D01*
X98829690Y-52311881D02*
X98829690Y-51311881D01*
X98734452Y-51454738D01*
X98639214Y-51549976D01*
X98543976Y-51597595D01*
X95686643Y-79795643D02*
X95639024Y-79843262D01*
X95496167Y-79890881D01*
X95400929Y-79890881D01*
X95258071Y-79843262D01*
X95162833Y-79748024D01*
X95115214Y-79652786D01*
X95067595Y-79462310D01*
X95067595Y-79319452D01*
X95115214Y-79128976D01*
X95162833Y-79033738D01*
X95258071Y-78938500D01*
X95400929Y-78890881D01*
X95496167Y-78890881D01*
X95639024Y-78938500D01*
X95686643Y-78986119D01*
X96639024Y-79890881D02*
X96067595Y-79890881D01*
X96353309Y-79890881D02*
X96353309Y-78890881D01*
X96258071Y-79033738D01*
X96162833Y-79128976D01*
X96067595Y-79176595D01*
X97019976Y-78986119D02*
X97067595Y-78938500D01*
X97162833Y-78890881D01*
X97400929Y-78890881D01*
X97496167Y-78938500D01*
X97543786Y-78986119D01*
X97591405Y-79081357D01*
X97591405Y-79176595D01*
X97543786Y-79319452D01*
X96972357Y-79890881D01*
X97591405Y-79890881D01*
X102671643Y-87034643D02*
X102624024Y-87082262D01*
X102481167Y-87129881D01*
X102385929Y-87129881D01*
X102243071Y-87082262D01*
X102147833Y-86987024D01*
X102100214Y-86891786D01*
X102052595Y-86701310D01*
X102052595Y-86558452D01*
X102100214Y-86367976D01*
X102147833Y-86272738D01*
X102243071Y-86177500D01*
X102385929Y-86129881D01*
X102481167Y-86129881D01*
X102624024Y-86177500D01*
X102671643Y-86225119D01*
X103624024Y-87129881D02*
X103052595Y-87129881D01*
X103338309Y-87129881D02*
X103338309Y-86129881D01*
X103243071Y-86272738D01*
X103147833Y-86367976D01*
X103052595Y-86415595D01*
X103957357Y-86129881D02*
X104576405Y-86129881D01*
X104243071Y-86510833D01*
X104385929Y-86510833D01*
X104481167Y-86558452D01*
X104528786Y-86606071D01*
X104576405Y-86701310D01*
X104576405Y-86939405D01*
X104528786Y-87034643D01*
X104481167Y-87082262D01*
X104385929Y-87129881D01*
X104100214Y-87129881D01*
X104004976Y-87082262D01*
X103957357Y-87034643D01*
X59666143Y-83002357D02*
X59713762Y-83049976D01*
X59761381Y-83192833D01*
X59761381Y-83288071D01*
X59713762Y-83430929D01*
X59618524Y-83526167D01*
X59523286Y-83573786D01*
X59332810Y-83621405D01*
X59189952Y-83621405D01*
X58999476Y-83573786D01*
X58904238Y-83526167D01*
X58809000Y-83430929D01*
X58761381Y-83288071D01*
X58761381Y-83192833D01*
X58809000Y-83049976D01*
X58856619Y-83002357D01*
X59761381Y-82049976D02*
X59761381Y-82621405D01*
X59761381Y-82335691D02*
X58761381Y-82335691D01*
X58904238Y-82430929D01*
X58999476Y-82526167D01*
X59047095Y-82621405D01*
X59094714Y-81192833D02*
X59761381Y-81192833D01*
X58713762Y-81430929D02*
X59428048Y-81669024D01*
X59428048Y-81049976D01*
X113450643Y-47759857D02*
X113498262Y-47807476D01*
X113545881Y-47950333D01*
X113545881Y-48045571D01*
X113498262Y-48188429D01*
X113403024Y-48283667D01*
X113307786Y-48331286D01*
X113117310Y-48378905D01*
X112974452Y-48378905D01*
X112783976Y-48331286D01*
X112688738Y-48283667D01*
X112593500Y-48188429D01*
X112545881Y-48045571D01*
X112545881Y-47950333D01*
X112593500Y-47807476D01*
X112641119Y-47759857D01*
X113545881Y-46807476D02*
X113545881Y-47378905D01*
X113545881Y-47093191D02*
X112545881Y-47093191D01*
X112688738Y-47188429D01*
X112783976Y-47283667D01*
X112831595Y-47378905D01*
X112545881Y-45902714D02*
X112545881Y-46378905D01*
X113022071Y-46426524D01*
X112974452Y-46378905D01*
X112926833Y-46283667D01*
X112926833Y-46045571D01*
X112974452Y-45950333D01*
X113022071Y-45902714D01*
X113117310Y-45855095D01*
X113355405Y-45855095D01*
X113450643Y-45902714D01*
X113498262Y-45950333D01*
X113545881Y-46045571D01*
X113545881Y-46283667D01*
X113498262Y-46378905D01*
X113450643Y-46426524D01*
X116986643Y-48204357D02*
X117034262Y-48251976D01*
X117081881Y-48394833D01*
X117081881Y-48490071D01*
X117034262Y-48632929D01*
X116939024Y-48728167D01*
X116843786Y-48775786D01*
X116653310Y-48823405D01*
X116510452Y-48823405D01*
X116319976Y-48775786D01*
X116224738Y-48728167D01*
X116129500Y-48632929D01*
X116081881Y-48490071D01*
X116081881Y-48394833D01*
X116129500Y-48251976D01*
X116177119Y-48204357D01*
X117081881Y-47251976D02*
X117081881Y-47823405D01*
X117081881Y-47537691D02*
X116081881Y-47537691D01*
X116224738Y-47632929D01*
X116319976Y-47728167D01*
X116367595Y-47823405D01*
X116081881Y-46394833D02*
X116081881Y-46585310D01*
X116129500Y-46680548D01*
X116177119Y-46728167D01*
X116319976Y-46823405D01*
X116510452Y-46871024D01*
X116891405Y-46871024D01*
X116986643Y-46823405D01*
X117034262Y-46775786D01*
X117081881Y-46680548D01*
X117081881Y-46490071D01*
X117034262Y-46394833D01*
X116986643Y-46347214D01*
X116891405Y-46299595D01*
X116653310Y-46299595D01*
X116558071Y-46347214D01*
X116510452Y-46394833D01*
X116462833Y-46490071D01*
X116462833Y-46680548D01*
X116510452Y-46775786D01*
X116558071Y-46823405D01*
X116653310Y-46871024D01*
X102782643Y-57284857D02*
X102830262Y-57332476D01*
X102877881Y-57475333D01*
X102877881Y-57570571D01*
X102830262Y-57713429D01*
X102735024Y-57808667D01*
X102639786Y-57856286D01*
X102449310Y-57903905D01*
X102306452Y-57903905D01*
X102115976Y-57856286D01*
X102020738Y-57808667D01*
X101925500Y-57713429D01*
X101877881Y-57570571D01*
X101877881Y-57475333D01*
X101925500Y-57332476D01*
X101973119Y-57284857D01*
X102877881Y-56332476D02*
X102877881Y-56903905D01*
X102877881Y-56618191D02*
X101877881Y-56618191D01*
X102020738Y-56713429D01*
X102115976Y-56808667D01*
X102163595Y-56903905D01*
X101877881Y-55999143D02*
X101877881Y-55332476D01*
X102877881Y-55761048D01*
X92114643Y-57919857D02*
X92162262Y-57967476D01*
X92209881Y-58110333D01*
X92209881Y-58205571D01*
X92162262Y-58348429D01*
X92067024Y-58443667D01*
X91971786Y-58491286D01*
X91781310Y-58538905D01*
X91638452Y-58538905D01*
X91447976Y-58491286D01*
X91352738Y-58443667D01*
X91257500Y-58348429D01*
X91209881Y-58205571D01*
X91209881Y-58110333D01*
X91257500Y-57967476D01*
X91305119Y-57919857D01*
X92209881Y-56967476D02*
X92209881Y-57538905D01*
X92209881Y-57253191D02*
X91209881Y-57253191D01*
X91352738Y-57348429D01*
X91447976Y-57443667D01*
X91495595Y-57538905D01*
X91638452Y-56396048D02*
X91590833Y-56491286D01*
X91543214Y-56538905D01*
X91447976Y-56586524D01*
X91400357Y-56586524D01*
X91305119Y-56538905D01*
X91257500Y-56491286D01*
X91209881Y-56396048D01*
X91209881Y-56205571D01*
X91257500Y-56110333D01*
X91305119Y-56062714D01*
X91400357Y-56015095D01*
X91447976Y-56015095D01*
X91543214Y-56062714D01*
X91590833Y-56110333D01*
X91638452Y-56205571D01*
X91638452Y-56396048D01*
X91686071Y-56491286D01*
X91733690Y-56538905D01*
X91828929Y-56586524D01*
X92019405Y-56586524D01*
X92114643Y-56538905D01*
X92162262Y-56491286D01*
X92209881Y-56396048D01*
X92209881Y-56205571D01*
X92162262Y-56110333D01*
X92114643Y-56062714D01*
X92019405Y-56015095D01*
X91828929Y-56015095D01*
X91733690Y-56062714D01*
X91686071Y-56110333D01*
X91638452Y-56205571D01*
X105338643Y-68639643D02*
X105291024Y-68687262D01*
X105148167Y-68734881D01*
X105052929Y-68734881D01*
X104910071Y-68687262D01*
X104814833Y-68592024D01*
X104767214Y-68496786D01*
X104719595Y-68306310D01*
X104719595Y-68163452D01*
X104767214Y-67972976D01*
X104814833Y-67877738D01*
X104910071Y-67782500D01*
X105052929Y-67734881D01*
X105148167Y-67734881D01*
X105291024Y-67782500D01*
X105338643Y-67830119D01*
X106291024Y-68734881D02*
X105719595Y-68734881D01*
X106005309Y-68734881D02*
X106005309Y-67734881D01*
X105910071Y-67877738D01*
X105814833Y-67972976D01*
X105719595Y-68020595D01*
X106767214Y-68734881D02*
X106957690Y-68734881D01*
X107052929Y-68687262D01*
X107100548Y-68639643D01*
X107195786Y-68496786D01*
X107243405Y-68306310D01*
X107243405Y-67925357D01*
X107195786Y-67830119D01*
X107148167Y-67782500D01*
X107052929Y-67734881D01*
X106862452Y-67734881D01*
X106767214Y-67782500D01*
X106719595Y-67830119D01*
X106671976Y-67925357D01*
X106671976Y-68163452D01*
X106719595Y-68258690D01*
X106767214Y-68306310D01*
X106862452Y-68353929D01*
X107052929Y-68353929D01*
X107148167Y-68306310D01*
X107195786Y-68258690D01*
X107243405Y-68163452D01*
X106763143Y-73350357D02*
X106810762Y-73397976D01*
X106858381Y-73540833D01*
X106858381Y-73636071D01*
X106810762Y-73778929D01*
X106715524Y-73874167D01*
X106620286Y-73921786D01*
X106429810Y-73969405D01*
X106286952Y-73969405D01*
X106096476Y-73921786D01*
X106001238Y-73874167D01*
X105906000Y-73778929D01*
X105858381Y-73636071D01*
X105858381Y-73540833D01*
X105906000Y-73397976D01*
X105953619Y-73350357D01*
X105953619Y-72969405D02*
X105906000Y-72921786D01*
X105858381Y-72826548D01*
X105858381Y-72588452D01*
X105906000Y-72493214D01*
X105953619Y-72445595D01*
X106048857Y-72397976D01*
X106144095Y-72397976D01*
X106286952Y-72445595D01*
X106858381Y-73017024D01*
X106858381Y-72397976D01*
X105858381Y-71778929D02*
X105858381Y-71683690D01*
X105906000Y-71588452D01*
X105953619Y-71540833D01*
X106048857Y-71493214D01*
X106239333Y-71445595D01*
X106477429Y-71445595D01*
X106667905Y-71493214D01*
X106763143Y-71540833D01*
X106810762Y-71588452D01*
X106858381Y-71683690D01*
X106858381Y-71778929D01*
X106810762Y-71874167D01*
X106763143Y-71921786D01*
X106667905Y-71969405D01*
X106477429Y-72017024D01*
X106239333Y-72017024D01*
X106048857Y-71969405D01*
X105953619Y-71921786D01*
X105906000Y-71874167D01*
X105858381Y-71778929D01*
X93908643Y-63476143D02*
X93861024Y-63523762D01*
X93718167Y-63571381D01*
X93622929Y-63571381D01*
X93480071Y-63523762D01*
X93384833Y-63428524D01*
X93337214Y-63333286D01*
X93289595Y-63142810D01*
X93289595Y-62999952D01*
X93337214Y-62809476D01*
X93384833Y-62714238D01*
X93480071Y-62619000D01*
X93622929Y-62571381D01*
X93718167Y-62571381D01*
X93861024Y-62619000D01*
X93908643Y-62666619D01*
X94289595Y-62666619D02*
X94337214Y-62619000D01*
X94432452Y-62571381D01*
X94670548Y-62571381D01*
X94765786Y-62619000D01*
X94813405Y-62666619D01*
X94861024Y-62761857D01*
X94861024Y-62857095D01*
X94813405Y-62999952D01*
X94241976Y-63571381D01*
X94861024Y-63571381D01*
X95813405Y-63571381D02*
X95241976Y-63571381D01*
X95527690Y-63571381D02*
X95527690Y-62571381D01*
X95432452Y-62714238D01*
X95337214Y-62809476D01*
X95241976Y-62857095D01*
X95924643Y-67127357D02*
X95972262Y-67174976D01*
X96019881Y-67317833D01*
X96019881Y-67413071D01*
X95972262Y-67555929D01*
X95877024Y-67651167D01*
X95781786Y-67698786D01*
X95591310Y-67746405D01*
X95448452Y-67746405D01*
X95257976Y-67698786D01*
X95162738Y-67651167D01*
X95067500Y-67555929D01*
X95019881Y-67413071D01*
X95019881Y-67317833D01*
X95067500Y-67174976D01*
X95115119Y-67127357D01*
X95115119Y-66746405D02*
X95067500Y-66698786D01*
X95019881Y-66603548D01*
X95019881Y-66365452D01*
X95067500Y-66270214D01*
X95115119Y-66222595D01*
X95210357Y-66174976D01*
X95305595Y-66174976D01*
X95448452Y-66222595D01*
X96019881Y-66794024D01*
X96019881Y-66174976D01*
X95115119Y-65794024D02*
X95067500Y-65746405D01*
X95019881Y-65651167D01*
X95019881Y-65413071D01*
X95067500Y-65317833D01*
X95115119Y-65270214D01*
X95210357Y-65222595D01*
X95305595Y-65222595D01*
X95448452Y-65270214D01*
X96019881Y-65841643D01*
X96019881Y-65222595D01*
X105513143Y-61539357D02*
X105560762Y-61586976D01*
X105608381Y-61729833D01*
X105608381Y-61825071D01*
X105560762Y-61967929D01*
X105465524Y-62063167D01*
X105370286Y-62110786D01*
X105179810Y-62158405D01*
X105036952Y-62158405D01*
X104846476Y-62110786D01*
X104751238Y-62063167D01*
X104656000Y-61967929D01*
X104608381Y-61825071D01*
X104608381Y-61729833D01*
X104656000Y-61586976D01*
X104703619Y-61539357D01*
X104703619Y-61158405D02*
X104656000Y-61110786D01*
X104608381Y-61015548D01*
X104608381Y-60777452D01*
X104656000Y-60682214D01*
X104703619Y-60634595D01*
X104798857Y-60586976D01*
X104894095Y-60586976D01*
X105036952Y-60634595D01*
X105608381Y-61206024D01*
X105608381Y-60586976D01*
X104941714Y-59729833D02*
X105608381Y-59729833D01*
X104560762Y-59967929D02*
X105275048Y-60206024D01*
X105275048Y-59586976D01*
X101655643Y-72810643D02*
X101608024Y-72858262D01*
X101465167Y-72905881D01*
X101369929Y-72905881D01*
X101227071Y-72858262D01*
X101131833Y-72763024D01*
X101084214Y-72667786D01*
X101036595Y-72477310D01*
X101036595Y-72334452D01*
X101084214Y-72143976D01*
X101131833Y-72048738D01*
X101227071Y-71953500D01*
X101369929Y-71905881D01*
X101465167Y-71905881D01*
X101608024Y-71953500D01*
X101655643Y-72001119D01*
X102036595Y-72001119D02*
X102084214Y-71953500D01*
X102179452Y-71905881D01*
X102417548Y-71905881D01*
X102512786Y-71953500D01*
X102560405Y-72001119D01*
X102608024Y-72096357D01*
X102608024Y-72191595D01*
X102560405Y-72334452D01*
X101988976Y-72905881D01*
X102608024Y-72905881D01*
X103512786Y-71905881D02*
X103036595Y-71905881D01*
X102988976Y-72382071D01*
X103036595Y-72334452D01*
X103131833Y-72286833D01*
X103369929Y-72286833D01*
X103465167Y-72334452D01*
X103512786Y-72382071D01*
X103560405Y-72477310D01*
X103560405Y-72715405D01*
X103512786Y-72810643D01*
X103465167Y-72858262D01*
X103369929Y-72905881D01*
X103131833Y-72905881D01*
X103036595Y-72858262D01*
X102988976Y-72810643D01*
X109466143Y-56745143D02*
X109418524Y-56792762D01*
X109275667Y-56840381D01*
X109180429Y-56840381D01*
X109037571Y-56792762D01*
X108942333Y-56697524D01*
X108894714Y-56602286D01*
X108847095Y-56411810D01*
X108847095Y-56268952D01*
X108894714Y-56078476D01*
X108942333Y-55983238D01*
X109037571Y-55888000D01*
X109180429Y-55840381D01*
X109275667Y-55840381D01*
X109418524Y-55888000D01*
X109466143Y-55935619D01*
X109847095Y-55935619D02*
X109894714Y-55888000D01*
X109989952Y-55840381D01*
X110228048Y-55840381D01*
X110323286Y-55888000D01*
X110370905Y-55935619D01*
X110418524Y-56030857D01*
X110418524Y-56126095D01*
X110370905Y-56268952D01*
X109799476Y-56840381D01*
X110418524Y-56840381D01*
X111275667Y-55840381D02*
X111085190Y-55840381D01*
X110989952Y-55888000D01*
X110942333Y-55935619D01*
X110847095Y-56078476D01*
X110799476Y-56268952D01*
X110799476Y-56649905D01*
X110847095Y-56745143D01*
X110894714Y-56792762D01*
X110989952Y-56840381D01*
X111180429Y-56840381D01*
X111275667Y-56792762D01*
X111323286Y-56745143D01*
X111370905Y-56649905D01*
X111370905Y-56411810D01*
X111323286Y-56316571D01*
X111275667Y-56268952D01*
X111180429Y-56221333D01*
X110989952Y-56221333D01*
X110894714Y-56268952D01*
X110847095Y-56316571D01*
X110799476Y-56411810D01*
X113276143Y-54141643D02*
X113228524Y-54189262D01*
X113085667Y-54236881D01*
X112990429Y-54236881D01*
X112847571Y-54189262D01*
X112752333Y-54094024D01*
X112704714Y-53998786D01*
X112657095Y-53808310D01*
X112657095Y-53665452D01*
X112704714Y-53474976D01*
X112752333Y-53379738D01*
X112847571Y-53284500D01*
X112990429Y-53236881D01*
X113085667Y-53236881D01*
X113228524Y-53284500D01*
X113276143Y-53332119D01*
X113657095Y-53332119D02*
X113704714Y-53284500D01*
X113799952Y-53236881D01*
X114038048Y-53236881D01*
X114133286Y-53284500D01*
X114180905Y-53332119D01*
X114228524Y-53427357D01*
X114228524Y-53522595D01*
X114180905Y-53665452D01*
X113609476Y-54236881D01*
X114228524Y-54236881D01*
X114799952Y-53665452D02*
X114704714Y-53617833D01*
X114657095Y-53570214D01*
X114609476Y-53474976D01*
X114609476Y-53427357D01*
X114657095Y-53332119D01*
X114704714Y-53284500D01*
X114799952Y-53236881D01*
X114990429Y-53236881D01*
X115085667Y-53284500D01*
X115133286Y-53332119D01*
X115180905Y-53427357D01*
X115180905Y-53474976D01*
X115133286Y-53570214D01*
X115085667Y-53617833D01*
X114990429Y-53665452D01*
X114799952Y-53665452D01*
X114704714Y-53713071D01*
X114657095Y-53760690D01*
X114609476Y-53855929D01*
X114609476Y-54046405D01*
X114657095Y-54141643D01*
X114704714Y-54189262D01*
X114799952Y-54236881D01*
X114990429Y-54236881D01*
X115085667Y-54189262D01*
X115133286Y-54141643D01*
X115180905Y-54046405D01*
X115180905Y-53855929D01*
X115133286Y-53760690D01*
X115085667Y-53713071D01*
X114990429Y-53665452D01*
X114403143Y-64333357D02*
X114450762Y-64380976D01*
X114498381Y-64523833D01*
X114498381Y-64619071D01*
X114450762Y-64761929D01*
X114355524Y-64857167D01*
X114260286Y-64904786D01*
X114069810Y-64952405D01*
X113926952Y-64952405D01*
X113736476Y-64904786D01*
X113641238Y-64857167D01*
X113546000Y-64761929D01*
X113498381Y-64619071D01*
X113498381Y-64523833D01*
X113546000Y-64380976D01*
X113593619Y-64333357D01*
X113593619Y-63952405D02*
X113546000Y-63904786D01*
X113498381Y-63809548D01*
X113498381Y-63571452D01*
X113546000Y-63476214D01*
X113593619Y-63428595D01*
X113688857Y-63380976D01*
X113784095Y-63380976D01*
X113926952Y-63428595D01*
X114498381Y-64000024D01*
X114498381Y-63380976D01*
X114498381Y-62904786D02*
X114498381Y-62714310D01*
X114450762Y-62619071D01*
X114403143Y-62571452D01*
X114260286Y-62476214D01*
X114069810Y-62428595D01*
X113688857Y-62428595D01*
X113593619Y-62476214D01*
X113546000Y-62523833D01*
X113498381Y-62619071D01*
X113498381Y-62809548D01*
X113546000Y-62904786D01*
X113593619Y-62952405D01*
X113688857Y-63000024D01*
X113926952Y-63000024D01*
X114022190Y-62952405D01*
X114069810Y-62904786D01*
X114117429Y-62809548D01*
X114117429Y-62619071D01*
X114069810Y-62523833D01*
X114022190Y-62476214D01*
X113926952Y-62428595D01*
X117721143Y-60809143D02*
X117673524Y-60856762D01*
X117530667Y-60904381D01*
X117435429Y-60904381D01*
X117292571Y-60856762D01*
X117197333Y-60761524D01*
X117149714Y-60666286D01*
X117102095Y-60475810D01*
X117102095Y-60332952D01*
X117149714Y-60142476D01*
X117197333Y-60047238D01*
X117292571Y-59952000D01*
X117435429Y-59904381D01*
X117530667Y-59904381D01*
X117673524Y-59952000D01*
X117721143Y-59999619D01*
X118054476Y-59904381D02*
X118673524Y-59904381D01*
X118340190Y-60285333D01*
X118483048Y-60285333D01*
X118578286Y-60332952D01*
X118625905Y-60380571D01*
X118673524Y-60475810D01*
X118673524Y-60713905D01*
X118625905Y-60809143D01*
X118578286Y-60856762D01*
X118483048Y-60904381D01*
X118197333Y-60904381D01*
X118102095Y-60856762D01*
X118054476Y-60809143D01*
X119292571Y-59904381D02*
X119387810Y-59904381D01*
X119483048Y-59952000D01*
X119530667Y-59999619D01*
X119578286Y-60094857D01*
X119625905Y-60285333D01*
X119625905Y-60523429D01*
X119578286Y-60713905D01*
X119530667Y-60809143D01*
X119483048Y-60856762D01*
X119387810Y-60904381D01*
X119292571Y-60904381D01*
X119197333Y-60856762D01*
X119149714Y-60809143D01*
X119102095Y-60713905D01*
X119054476Y-60523429D01*
X119054476Y-60285333D01*
X119102095Y-60094857D01*
X119149714Y-59999619D01*
X119197333Y-59952000D01*
X119292571Y-59904381D01*
X117911643Y-64047643D02*
X117864024Y-64095262D01*
X117721167Y-64142881D01*
X117625929Y-64142881D01*
X117483071Y-64095262D01*
X117387833Y-64000024D01*
X117340214Y-63904786D01*
X117292595Y-63714310D01*
X117292595Y-63571452D01*
X117340214Y-63380976D01*
X117387833Y-63285738D01*
X117483071Y-63190500D01*
X117625929Y-63142881D01*
X117721167Y-63142881D01*
X117864024Y-63190500D01*
X117911643Y-63238119D01*
X118244976Y-63142881D02*
X118864024Y-63142881D01*
X118530690Y-63523833D01*
X118673548Y-63523833D01*
X118768786Y-63571452D01*
X118816405Y-63619071D01*
X118864024Y-63714310D01*
X118864024Y-63952405D01*
X118816405Y-64047643D01*
X118768786Y-64095262D01*
X118673548Y-64142881D01*
X118387833Y-64142881D01*
X118292595Y-64095262D01*
X118244976Y-64047643D01*
X119816405Y-64142881D02*
X119244976Y-64142881D01*
X119530690Y-64142881D02*
X119530690Y-63142881D01*
X119435452Y-63285738D01*
X119340214Y-63380976D01*
X119244976Y-63428595D01*
X117911643Y-69699143D02*
X117864024Y-69746762D01*
X117721167Y-69794381D01*
X117625929Y-69794381D01*
X117483071Y-69746762D01*
X117387833Y-69651524D01*
X117340214Y-69556286D01*
X117292595Y-69365810D01*
X117292595Y-69222952D01*
X117340214Y-69032476D01*
X117387833Y-68937238D01*
X117483071Y-68842000D01*
X117625929Y-68794381D01*
X117721167Y-68794381D01*
X117864024Y-68842000D01*
X117911643Y-68889619D01*
X118244976Y-68794381D02*
X118864024Y-68794381D01*
X118530690Y-69175333D01*
X118673548Y-69175333D01*
X118768786Y-69222952D01*
X118816405Y-69270571D01*
X118864024Y-69365810D01*
X118864024Y-69603905D01*
X118816405Y-69699143D01*
X118768786Y-69746762D01*
X118673548Y-69794381D01*
X118387833Y-69794381D01*
X118292595Y-69746762D01*
X118244976Y-69699143D01*
X119244976Y-68889619D02*
X119292595Y-68842000D01*
X119387833Y-68794381D01*
X119625929Y-68794381D01*
X119721167Y-68842000D01*
X119768786Y-68889619D01*
X119816405Y-68984857D01*
X119816405Y-69080095D01*
X119768786Y-69222952D01*
X119197357Y-69794381D01*
X119816405Y-69794381D01*
X113657143Y-69445143D02*
X113609524Y-69492762D01*
X113466667Y-69540381D01*
X113371429Y-69540381D01*
X113228571Y-69492762D01*
X113133333Y-69397524D01*
X113085714Y-69302286D01*
X113038095Y-69111810D01*
X113038095Y-68968952D01*
X113085714Y-68778476D01*
X113133333Y-68683238D01*
X113228571Y-68588000D01*
X113371429Y-68540381D01*
X113466667Y-68540381D01*
X113609524Y-68588000D01*
X113657143Y-68635619D01*
X113990476Y-68540381D02*
X114609524Y-68540381D01*
X114276190Y-68921333D01*
X114419048Y-68921333D01*
X114514286Y-68968952D01*
X114561905Y-69016571D01*
X114609524Y-69111810D01*
X114609524Y-69349905D01*
X114561905Y-69445143D01*
X114514286Y-69492762D01*
X114419048Y-69540381D01*
X114133333Y-69540381D01*
X114038095Y-69492762D01*
X113990476Y-69445143D01*
X114942857Y-68540381D02*
X115561905Y-68540381D01*
X115228571Y-68921333D01*
X115371429Y-68921333D01*
X115466667Y-68968952D01*
X115514286Y-69016571D01*
X115561905Y-69111810D01*
X115561905Y-69349905D01*
X115514286Y-69445143D01*
X115466667Y-69492762D01*
X115371429Y-69540381D01*
X115085714Y-69540381D01*
X114990476Y-69492762D01*
X114942857Y-69445143D01*
X117784643Y-71985143D02*
X117737024Y-72032762D01*
X117594167Y-72080381D01*
X117498929Y-72080381D01*
X117356071Y-72032762D01*
X117260833Y-71937524D01*
X117213214Y-71842286D01*
X117165595Y-71651810D01*
X117165595Y-71508952D01*
X117213214Y-71318476D01*
X117260833Y-71223238D01*
X117356071Y-71128000D01*
X117498929Y-71080381D01*
X117594167Y-71080381D01*
X117737024Y-71128000D01*
X117784643Y-71175619D01*
X118117976Y-71080381D02*
X118737024Y-71080381D01*
X118403690Y-71461333D01*
X118546548Y-71461333D01*
X118641786Y-71508952D01*
X118689405Y-71556571D01*
X118737024Y-71651810D01*
X118737024Y-71889905D01*
X118689405Y-71985143D01*
X118641786Y-72032762D01*
X118546548Y-72080381D01*
X118260833Y-72080381D01*
X118165595Y-72032762D01*
X118117976Y-71985143D01*
X119594167Y-71413714D02*
X119594167Y-72080381D01*
X119356071Y-71032762D02*
X119117976Y-71747048D01*
X119737024Y-71747048D01*
X82288143Y-60428143D02*
X82240524Y-60475762D01*
X82097667Y-60523381D01*
X82002429Y-60523381D01*
X81859571Y-60475762D01*
X81764333Y-60380524D01*
X81716714Y-60285286D01*
X81669095Y-60094810D01*
X81669095Y-59951952D01*
X81716714Y-59761476D01*
X81764333Y-59666238D01*
X81859571Y-59571000D01*
X82002429Y-59523381D01*
X82097667Y-59523381D01*
X82240524Y-59571000D01*
X82288143Y-59618619D01*
X82621476Y-59523381D02*
X83240524Y-59523381D01*
X82907190Y-59904333D01*
X83050048Y-59904333D01*
X83145286Y-59951952D01*
X83192905Y-59999571D01*
X83240524Y-60094810D01*
X83240524Y-60332905D01*
X83192905Y-60428143D01*
X83145286Y-60475762D01*
X83050048Y-60523381D01*
X82764333Y-60523381D01*
X82669095Y-60475762D01*
X82621476Y-60428143D01*
X83811952Y-59951952D02*
X83716714Y-59904333D01*
X83669095Y-59856714D01*
X83621476Y-59761476D01*
X83621476Y-59713857D01*
X83669095Y-59618619D01*
X83716714Y-59571000D01*
X83811952Y-59523381D01*
X84002429Y-59523381D01*
X84097667Y-59571000D01*
X84145286Y-59618619D01*
X84192905Y-59713857D01*
X84192905Y-59761476D01*
X84145286Y-59856714D01*
X84097667Y-59904333D01*
X84002429Y-59951952D01*
X83811952Y-59951952D01*
X83716714Y-59999571D01*
X83669095Y-60047190D01*
X83621476Y-60142429D01*
X83621476Y-60332905D01*
X83669095Y-60428143D01*
X83716714Y-60475762D01*
X83811952Y-60523381D01*
X84002429Y-60523381D01*
X84097667Y-60475762D01*
X84145286Y-60428143D01*
X84192905Y-60332905D01*
X84192905Y-60142429D01*
X84145286Y-60047190D01*
X84097667Y-59999571D01*
X84002429Y-59951952D01*
X75477643Y-62237857D02*
X75525262Y-62285476D01*
X75572881Y-62428333D01*
X75572881Y-62523571D01*
X75525262Y-62666429D01*
X75430024Y-62761667D01*
X75334786Y-62809286D01*
X75144310Y-62856905D01*
X75001452Y-62856905D01*
X74810976Y-62809286D01*
X74715738Y-62761667D01*
X74620500Y-62666429D01*
X74572881Y-62523571D01*
X74572881Y-62428333D01*
X74620500Y-62285476D01*
X74668119Y-62237857D01*
X74572881Y-61904524D02*
X74572881Y-61285476D01*
X74953833Y-61618810D01*
X74953833Y-61475952D01*
X75001452Y-61380714D01*
X75049071Y-61333095D01*
X75144310Y-61285476D01*
X75382405Y-61285476D01*
X75477643Y-61333095D01*
X75525262Y-61380714D01*
X75572881Y-61475952D01*
X75572881Y-61761667D01*
X75525262Y-61856905D01*
X75477643Y-61904524D01*
X75572881Y-60809286D02*
X75572881Y-60618810D01*
X75525262Y-60523571D01*
X75477643Y-60475952D01*
X75334786Y-60380714D01*
X75144310Y-60333095D01*
X74763357Y-60333095D01*
X74668119Y-60380714D01*
X74620500Y-60428333D01*
X74572881Y-60523571D01*
X74572881Y-60714048D01*
X74620500Y-60809286D01*
X74668119Y-60856905D01*
X74763357Y-60904524D01*
X75001452Y-60904524D01*
X75096690Y-60856905D01*
X75144310Y-60809286D01*
X75191929Y-60714048D01*
X75191929Y-60523571D01*
X75144310Y-60428333D01*
X75096690Y-60380714D01*
X75001452Y-60333095D01*
X80155381Y-88431595D02*
X79155381Y-88431595D01*
X79155381Y-88193500D01*
X79203000Y-88050642D01*
X79298238Y-87955404D01*
X79393476Y-87907785D01*
X79583952Y-87860166D01*
X79726810Y-87860166D01*
X79917286Y-87907785D01*
X80012524Y-87955404D01*
X80107762Y-88050642D01*
X80155381Y-88193500D01*
X80155381Y-88431595D01*
X80155381Y-86907785D02*
X80155381Y-87479214D01*
X80155381Y-87193500D02*
X79155381Y-87193500D01*
X79298238Y-87288738D01*
X79393476Y-87383976D01*
X79441095Y-87479214D01*
X84346381Y-88368095D02*
X83346381Y-88368095D01*
X83346381Y-88130000D01*
X83394000Y-87987142D01*
X83489238Y-87891904D01*
X83584476Y-87844285D01*
X83774952Y-87796666D01*
X83917810Y-87796666D01*
X84108286Y-87844285D01*
X84203524Y-87891904D01*
X84298762Y-87987142D01*
X84346381Y-88130000D01*
X84346381Y-88368095D01*
X83441619Y-87415714D02*
X83394000Y-87368095D01*
X83346381Y-87272857D01*
X83346381Y-87034761D01*
X83394000Y-86939523D01*
X83441619Y-86891904D01*
X83536857Y-86844285D01*
X83632095Y-86844285D01*
X83774952Y-86891904D01*
X84346381Y-87463333D01*
X84346381Y-86844285D01*
X68500667Y-42505381D02*
X68500667Y-43219667D01*
X68453047Y-43362524D01*
X68357809Y-43457762D01*
X68214952Y-43505381D01*
X68119714Y-43505381D01*
X69500667Y-43505381D02*
X68929238Y-43505381D01*
X69214952Y-43505381D02*
X69214952Y-42505381D01*
X69119714Y-42648238D01*
X69024476Y-42743476D01*
X68929238Y-42791095D01*
X64373167Y-42695881D02*
X64373167Y-43410167D01*
X64325547Y-43553024D01*
X64230309Y-43648262D01*
X64087452Y-43695881D01*
X63992214Y-43695881D01*
X64801738Y-42791119D02*
X64849357Y-42743500D01*
X64944595Y-42695881D01*
X65182691Y-42695881D01*
X65277929Y-42743500D01*
X65325548Y-42791119D01*
X65373167Y-42886357D01*
X65373167Y-42981595D01*
X65325548Y-43124452D01*
X64754119Y-43695881D01*
X65373167Y-43695881D01*
X113180881Y-39195333D02*
X113895167Y-39195333D01*
X114038024Y-39242953D01*
X114133262Y-39338191D01*
X114180881Y-39481048D01*
X114180881Y-39576286D01*
X113514214Y-38290571D02*
X114180881Y-38290571D01*
X113133262Y-38528667D02*
X113847548Y-38766762D01*
X113847548Y-38147714D01*
X108481881Y-39068333D02*
X109196167Y-39068333D01*
X109339024Y-39115953D01*
X109434262Y-39211191D01*
X109481881Y-39354048D01*
X109481881Y-39449286D01*
X108481881Y-38115952D02*
X108481881Y-38592143D01*
X108958071Y-38639762D01*
X108910452Y-38592143D01*
X108862833Y-38496905D01*
X108862833Y-38258809D01*
X108910452Y-38163571D01*
X108958071Y-38115952D01*
X109053310Y-38068333D01*
X109291405Y-38068333D01*
X109386643Y-38115952D01*
X109434262Y-38163571D01*
X109481881Y-38258809D01*
X109481881Y-38496905D01*
X109434262Y-38592143D01*
X109386643Y-38639762D01*
D17*
X69483347Y-80627694D02*
X69483347Y-81344037D01*
X69435591Y-81487305D01*
X69340079Y-81582818D01*
X69196810Y-81630574D01*
X69101298Y-81630574D01*
X70390715Y-80627694D02*
X70199690Y-80627694D01*
X70104178Y-80675450D01*
X70056421Y-80723206D01*
X69960909Y-80866475D01*
X69913153Y-81057500D01*
X69913153Y-81439549D01*
X69960909Y-81535061D01*
X70008665Y-81582818D01*
X70104178Y-81630574D01*
X70295202Y-81630574D01*
X70390715Y-81582818D01*
X70438471Y-81535061D01*
X70486227Y-81439549D01*
X70486227Y-81200768D01*
X70438471Y-81105256D01*
X70390715Y-81057500D01*
X70295202Y-81009743D01*
X70104178Y-81009743D01*
X70008665Y-81057500D01*
X69960909Y-81105256D01*
X69913153Y-81200768D01*
D18*
X82383334Y-44711881D02*
X81907143Y-44711881D01*
X81907143Y-43711881D01*
X83240477Y-44711881D02*
X82669048Y-44711881D01*
X82954762Y-44711881D02*
X82954762Y-43711881D01*
X82859524Y-43854738D01*
X82764286Y-43949976D01*
X82669048Y-43997595D01*
X109942334Y-61798381D02*
X109466143Y-61798381D01*
X109466143Y-60798381D01*
X110228048Y-60893619D02*
X110275667Y-60846000D01*
X110370905Y-60798381D01*
X110609001Y-60798381D01*
X110704239Y-60846000D01*
X110751858Y-60893619D01*
X110799477Y-60988857D01*
X110799477Y-61084095D01*
X110751858Y-61226952D01*
X110180429Y-61798381D01*
X110799477Y-61798381D01*
X109942334Y-65989381D02*
X109466143Y-65989381D01*
X109466143Y-64989381D01*
X110180429Y-64989381D02*
X110799477Y-64989381D01*
X110466143Y-65370333D01*
X110609001Y-65370333D01*
X110704239Y-65417952D01*
X110751858Y-65465571D01*
X110799477Y-65560810D01*
X110799477Y-65798905D01*
X110751858Y-65894143D01*
X110704239Y-65941762D01*
X110609001Y-65989381D01*
X110323286Y-65989381D01*
X110228048Y-65941762D01*
X110180429Y-65894143D01*
X83055381Y-82907166D02*
X82579190Y-83240500D01*
X83055381Y-83478595D02*
X82055381Y-83478595D01*
X82055381Y-83097642D01*
X82103000Y-83002404D01*
X82150619Y-82954785D01*
X82245857Y-82907166D01*
X82388714Y-82907166D01*
X82483952Y-82954785D01*
X82531571Y-83002404D01*
X82579190Y-83097642D01*
X82579190Y-83478595D01*
X83055381Y-81954785D02*
X83055381Y-82526214D01*
X83055381Y-82240500D02*
X82055381Y-82240500D01*
X82198238Y-82335738D01*
X82293476Y-82430976D01*
X82341095Y-82526214D01*
X87246381Y-82907166D02*
X86770190Y-83240500D01*
X87246381Y-83478595D02*
X86246381Y-83478595D01*
X86246381Y-83097642D01*
X86294000Y-83002404D01*
X86341619Y-82954785D01*
X86436857Y-82907166D01*
X86579714Y-82907166D01*
X86674952Y-82954785D01*
X86722571Y-83002404D01*
X86770190Y-83097642D01*
X86770190Y-83478595D01*
X86341619Y-82526214D02*
X86294000Y-82478595D01*
X86246381Y-82383357D01*
X86246381Y-82145261D01*
X86294000Y-82050023D01*
X86341619Y-82002404D01*
X86436857Y-81954785D01*
X86532095Y-81954785D01*
X86674952Y-82002404D01*
X87246381Y-82573833D01*
X87246381Y-81954785D01*
X77049334Y-41356881D02*
X76716000Y-40880690D01*
X76477905Y-41356881D02*
X76477905Y-40356881D01*
X76858858Y-40356881D01*
X76954096Y-40404500D01*
X77001715Y-40452119D01*
X77049334Y-40547357D01*
X77049334Y-40690214D01*
X77001715Y-40785452D01*
X76954096Y-40833071D01*
X76858858Y-40880690D01*
X76477905Y-40880690D01*
X77954096Y-40356881D02*
X77477905Y-40356881D01*
X77430286Y-40833071D01*
X77477905Y-40785452D01*
X77573143Y-40737833D01*
X77811239Y-40737833D01*
X77906477Y-40785452D01*
X77954096Y-40833071D01*
X78001715Y-40928310D01*
X78001715Y-41166405D01*
X77954096Y-41261643D01*
X77906477Y-41309262D01*
X77811239Y-41356881D01*
X77573143Y-41356881D01*
X77477905Y-41309262D01*
X77430286Y-41261643D01*
X76985834Y-37800881D02*
X76652500Y-37324690D01*
X76414405Y-37800881D02*
X76414405Y-36800881D01*
X76795358Y-36800881D01*
X76890596Y-36848500D01*
X76938215Y-36896119D01*
X76985834Y-36991357D01*
X76985834Y-37134214D01*
X76938215Y-37229452D01*
X76890596Y-37277071D01*
X76795358Y-37324690D01*
X76414405Y-37324690D01*
X77842977Y-36800881D02*
X77652500Y-36800881D01*
X77557262Y-36848500D01*
X77509643Y-36896119D01*
X77414405Y-37038976D01*
X77366786Y-37229452D01*
X77366786Y-37610405D01*
X77414405Y-37705643D01*
X77462024Y-37753262D01*
X77557262Y-37800881D01*
X77747739Y-37800881D01*
X77842977Y-37753262D01*
X77890596Y-37705643D01*
X77938215Y-37610405D01*
X77938215Y-37372310D01*
X77890596Y-37277071D01*
X77842977Y-37229452D01*
X77747739Y-37181833D01*
X77557262Y-37181833D01*
X77462024Y-37229452D01*
X77414405Y-37277071D01*
X77366786Y-37372310D01*
X71175643Y-59687381D02*
X70842309Y-59211190D01*
X70604214Y-59687381D02*
X70604214Y-58687381D01*
X70985167Y-58687381D01*
X71080405Y-58735000D01*
X71128024Y-58782619D01*
X71175643Y-58877857D01*
X71175643Y-59020714D01*
X71128024Y-59115952D01*
X71080405Y-59163571D01*
X70985167Y-59211190D01*
X70604214Y-59211190D01*
X72128024Y-59687381D02*
X71556595Y-59687381D01*
X71842309Y-59687381D02*
X71842309Y-58687381D01*
X71747071Y-58830238D01*
X71651833Y-58925476D01*
X71556595Y-58973095D01*
X72747071Y-58687381D02*
X72842310Y-58687381D01*
X72937548Y-58735000D01*
X72985167Y-58782619D01*
X73032786Y-58877857D01*
X73080405Y-59068333D01*
X73080405Y-59306429D01*
X73032786Y-59496905D01*
X72985167Y-59592143D01*
X72937548Y-59639762D01*
X72842310Y-59687381D01*
X72747071Y-59687381D01*
X72651833Y-59639762D01*
X72604214Y-59592143D01*
X72556595Y-59496905D01*
X72508976Y-59306429D01*
X72508976Y-59068333D01*
X72556595Y-58877857D01*
X72604214Y-58782619D01*
X72651833Y-58735000D01*
X72747071Y-58687381D01*
X116583381Y-59062857D02*
X116107190Y-59396191D01*
X116583381Y-59634286D02*
X115583381Y-59634286D01*
X115583381Y-59253333D01*
X115631000Y-59158095D01*
X115678619Y-59110476D01*
X115773857Y-59062857D01*
X115916714Y-59062857D01*
X116011952Y-59110476D01*
X116059571Y-59158095D01*
X116107190Y-59253333D01*
X116107190Y-59634286D01*
X116583381Y-58110476D02*
X116583381Y-58681905D01*
X116583381Y-58396191D02*
X115583381Y-58396191D01*
X115726238Y-58491429D01*
X115821476Y-58586667D01*
X115869095Y-58681905D01*
X115583381Y-57205714D02*
X115583381Y-57681905D01*
X116059571Y-57729524D01*
X116011952Y-57681905D01*
X115964333Y-57586667D01*
X115964333Y-57348571D01*
X116011952Y-57253333D01*
X116059571Y-57205714D01*
X116154810Y-57158095D01*
X116392905Y-57158095D01*
X116488143Y-57205714D01*
X116535762Y-57253333D01*
X116583381Y-57348571D01*
X116583381Y-57586667D01*
X116535762Y-57681905D01*
X116488143Y-57729524D01*
X100205881Y-47593095D02*
X101015405Y-47593095D01*
X101110643Y-47545476D01*
X101158262Y-47497857D01*
X101205881Y-47402619D01*
X101205881Y-47212142D01*
X101158262Y-47116904D01*
X101110643Y-47069285D01*
X101015405Y-47021666D01*
X100205881Y-47021666D01*
X101205881Y-46021666D02*
X101205881Y-46593095D01*
X101205881Y-46307381D02*
X100205881Y-46307381D01*
X100348738Y-46402619D01*
X100443976Y-46497857D01*
X100491595Y-46593095D01*
X101205881Y-45545476D02*
X101205881Y-45355000D01*
X101158262Y-45259761D01*
X101110643Y-45212142D01*
X100967786Y-45116904D01*
X100777310Y-45069285D01*
X100396357Y-45069285D01*
X100301119Y-45116904D01*
X100253500Y-45164523D01*
X100205881Y-45259761D01*
X100205881Y-45450238D01*
X100253500Y-45545476D01*
X100301119Y-45593095D01*
X100396357Y-45640714D01*
X100634452Y-45640714D01*
X100729690Y-45593095D01*
X100777310Y-45545476D01*
X100824929Y-45450238D01*
X100824929Y-45259761D01*
X100777310Y-45164523D01*
X100729690Y-45116904D01*
X100634452Y-45069285D01*
D10*
X93010229Y-47413829D02*
X93010229Y-46813829D01*
X93153086Y-46813829D01*
X93238801Y-46842400D01*
X93295943Y-46899543D01*
X93324515Y-46956686D01*
X93353086Y-47070971D01*
X93353086Y-47156686D01*
X93324515Y-47270971D01*
X93295943Y-47328114D01*
X93238801Y-47385257D01*
X93153086Y-47413829D01*
X93010229Y-47413829D01*
X93724515Y-46813829D02*
X93838801Y-46813829D01*
X93895943Y-46842400D01*
X93953086Y-46899543D01*
X93981658Y-47013829D01*
X93981658Y-47213829D01*
X93953086Y-47328114D01*
X93895943Y-47385257D01*
X93838801Y-47413829D01*
X93724515Y-47413829D01*
X93667372Y-47385257D01*
X93610229Y-47328114D01*
X93581658Y-47213829D01*
X93581658Y-47013829D01*
X93610229Y-46899543D01*
X93667372Y-46842400D01*
X93724515Y-46813829D01*
X94153086Y-46813829D02*
X94495943Y-46813829D01*
X94324514Y-47413829D02*
X94324514Y-46813829D01*
X94553086Y-47470971D02*
X95010229Y-47470971D01*
X95495943Y-47356686D02*
X95467372Y-47385257D01*
X95381658Y-47413829D01*
X95324515Y-47413829D01*
X95238800Y-47385257D01*
X95181658Y-47328114D01*
X95153086Y-47270971D01*
X95124515Y-47156686D01*
X95124515Y-47070971D01*
X95153086Y-46956686D01*
X95181658Y-46899543D01*
X95238800Y-46842400D01*
X95324515Y-46813829D01*
X95381658Y-46813829D01*
X95467372Y-46842400D01*
X95495943Y-46870971D01*
X95753086Y-47413829D02*
X95753086Y-46813829D01*
X96095943Y-47413829D02*
X95838800Y-47070971D01*
X96095943Y-46813829D02*
X95753086Y-47156686D01*
X90109829Y-47413829D02*
X90109829Y-46813829D01*
X90252686Y-46813829D01*
X90338401Y-46842400D01*
X90395543Y-46899543D01*
X90424115Y-46956686D01*
X90452686Y-47070971D01*
X90452686Y-47156686D01*
X90424115Y-47270971D01*
X90395543Y-47328114D01*
X90338401Y-47385257D01*
X90252686Y-47413829D01*
X90109829Y-47413829D01*
X90824115Y-46813829D02*
X90938401Y-46813829D01*
X90995543Y-46842400D01*
X91052686Y-46899543D01*
X91081258Y-47013829D01*
X91081258Y-47213829D01*
X91052686Y-47328114D01*
X90995543Y-47385257D01*
X90938401Y-47413829D01*
X90824115Y-47413829D01*
X90766972Y-47385257D01*
X90709829Y-47328114D01*
X90681258Y-47213829D01*
X90681258Y-47013829D01*
X90709829Y-46899543D01*
X90766972Y-46842400D01*
X90824115Y-46813829D01*
X91252686Y-46813829D02*
X91595543Y-46813829D01*
X91424114Y-47413829D02*
X91424114Y-46813829D01*
X91652686Y-47470971D02*
X92109829Y-47470971D01*
X92252686Y-47413829D02*
X92252686Y-46813829D01*
X92395543Y-46813829D01*
X92481258Y-46842400D01*
X92538400Y-46899543D01*
X92566972Y-46956686D01*
X92595543Y-47070971D01*
X92595543Y-47156686D01*
X92566972Y-47270971D01*
X92538400Y-47328114D01*
X92481258Y-47385257D01*
X92395543Y-47413829D01*
X92252686Y-47413829D01*
X118427677Y-58959733D02*
X118808629Y-58959733D01*
X118351486Y-59188305D02*
X118618153Y-58388305D01*
X118884820Y-59188305D01*
X119151486Y-59188305D02*
X119151486Y-58388305D01*
X119608629Y-59188305D01*
X119608629Y-58388305D01*
X119875295Y-58388305D02*
X120332438Y-58388305D01*
X120103867Y-59188305D02*
X120103867Y-58388305D01*
X120599105Y-58883543D02*
X121208629Y-58883543D01*
X120903867Y-59188305D02*
X120903867Y-58578781D01*
X118173677Y-77349333D02*
X118554629Y-77349333D01*
X118097486Y-77577905D02*
X118364153Y-76777905D01*
X118630820Y-77577905D01*
X118897486Y-77577905D02*
X118897486Y-76777905D01*
X119354629Y-77577905D01*
X119354629Y-76777905D01*
X119621295Y-76777905D02*
X120078438Y-76777905D01*
X119849867Y-77577905D02*
X119849867Y-76777905D01*
X120345105Y-77273143D02*
X120954629Y-77273143D01*
X87870649Y-85366990D02*
X87870649Y-84866990D01*
X88084934Y-84914610D02*
X88108744Y-84890800D01*
X88156363Y-84866990D01*
X88275410Y-84866990D01*
X88323029Y-84890800D01*
X88346839Y-84914610D01*
X88370648Y-84962229D01*
X88370648Y-85009848D01*
X88346839Y-85081276D01*
X88061125Y-85366990D01*
X88370648Y-85366990D01*
X88870648Y-85319371D02*
X88846838Y-85343181D01*
X88775410Y-85366990D01*
X88727791Y-85366990D01*
X88656362Y-85343181D01*
X88608743Y-85295562D01*
X88584934Y-85247943D01*
X88561124Y-85152705D01*
X88561124Y-85081276D01*
X88584934Y-84986038D01*
X88608743Y-84938419D01*
X88656362Y-84890800D01*
X88727791Y-84866990D01*
X88775410Y-84866990D01*
X88846838Y-84890800D01*
X88870648Y-84914610D01*
X88965886Y-85414610D02*
X89346838Y-85414610D01*
X89751600Y-85319371D02*
X89727790Y-85343181D01*
X89656362Y-85366990D01*
X89608743Y-85366990D01*
X89537314Y-85343181D01*
X89489695Y-85295562D01*
X89465886Y-85247943D01*
X89442076Y-85152705D01*
X89442076Y-85081276D01*
X89465886Y-84986038D01*
X89489695Y-84938419D01*
X89537314Y-84890800D01*
X89608743Y-84866990D01*
X89656362Y-84866990D01*
X89727790Y-84890800D01*
X89751600Y-84914610D01*
X89965886Y-85366990D02*
X89965886Y-84866990D01*
X90013505Y-85176514D02*
X90156362Y-85366990D01*
X90156362Y-85033657D02*
X89965886Y-85224133D01*
X81633335Y-80388590D02*
X81633335Y-79888590D01*
X81847620Y-79936210D02*
X81871430Y-79912400D01*
X81919049Y-79888590D01*
X82038096Y-79888590D01*
X82085715Y-79912400D01*
X82109525Y-79936210D01*
X82133334Y-79983829D01*
X82133334Y-80031448D01*
X82109525Y-80102876D01*
X81823811Y-80388590D01*
X82133334Y-80388590D01*
X82323810Y-80364781D02*
X82395239Y-80388590D01*
X82514286Y-80388590D01*
X82561905Y-80364781D01*
X82585715Y-80340971D01*
X82609524Y-80293352D01*
X82609524Y-80245733D01*
X82585715Y-80198114D01*
X82561905Y-80174305D01*
X82514286Y-80150495D01*
X82419048Y-80126686D01*
X82371429Y-80102876D01*
X82347620Y-80079067D01*
X82323810Y-80031448D01*
X82323810Y-79983829D01*
X82347620Y-79936210D01*
X82371429Y-79912400D01*
X82419048Y-79888590D01*
X82538096Y-79888590D01*
X82609524Y-79912400D01*
X82704762Y-80436210D02*
X83085714Y-80436210D01*
X83204762Y-80388590D02*
X83204762Y-79888590D01*
X83323809Y-79888590D01*
X83395238Y-79912400D01*
X83442857Y-79960019D01*
X83466666Y-80007638D01*
X83490476Y-80102876D01*
X83490476Y-80174305D01*
X83466666Y-80269543D01*
X83442857Y-80317162D01*
X83395238Y-80364781D01*
X83323809Y-80388590D01*
X83204762Y-80388590D01*
X77624135Y-83284190D02*
X77624135Y-82784190D01*
X77838420Y-82831810D02*
X77862230Y-82808000D01*
X77909849Y-82784190D01*
X78028896Y-82784190D01*
X78076515Y-82808000D01*
X78100325Y-82831810D01*
X78124134Y-82879429D01*
X78124134Y-82927048D01*
X78100325Y-82998476D01*
X77814611Y-83284190D01*
X78124134Y-83284190D01*
X78314610Y-83260381D02*
X78386039Y-83284190D01*
X78505086Y-83284190D01*
X78552705Y-83260381D01*
X78576515Y-83236571D01*
X78600324Y-83188952D01*
X78600324Y-83141333D01*
X78576515Y-83093714D01*
X78552705Y-83069905D01*
X78505086Y-83046095D01*
X78409848Y-83022286D01*
X78362229Y-82998476D01*
X78338420Y-82974667D01*
X78314610Y-82927048D01*
X78314610Y-82879429D01*
X78338420Y-82831810D01*
X78362229Y-82808000D01*
X78409848Y-82784190D01*
X78528896Y-82784190D01*
X78600324Y-82808000D01*
X78695562Y-83331810D02*
X79076514Y-83331810D01*
X79481276Y-83236571D02*
X79457466Y-83260381D01*
X79386038Y-83284190D01*
X79338419Y-83284190D01*
X79266990Y-83260381D01*
X79219371Y-83212762D01*
X79195562Y-83165143D01*
X79171752Y-83069905D01*
X79171752Y-82998476D01*
X79195562Y-82903238D01*
X79219371Y-82855619D01*
X79266990Y-82808000D01*
X79338419Y-82784190D01*
X79386038Y-82784190D01*
X79457466Y-82808000D01*
X79481276Y-82831810D01*
X79695562Y-83284190D02*
X79695562Y-82784190D01*
X79981276Y-83284190D02*
X79766990Y-82998476D01*
X79981276Y-82784190D02*
X79695562Y-83069905D01*
X91121030Y-85366990D02*
X91121030Y-84866990D01*
X91335315Y-84914610D02*
X91359125Y-84890800D01*
X91406744Y-84866990D01*
X91525791Y-84866990D01*
X91573410Y-84890800D01*
X91597220Y-84914610D01*
X91621029Y-84962229D01*
X91621029Y-85009848D01*
X91597220Y-85081276D01*
X91311506Y-85366990D01*
X91621029Y-85366990D01*
X92121029Y-85319371D02*
X92097219Y-85343181D01*
X92025791Y-85366990D01*
X91978172Y-85366990D01*
X91906743Y-85343181D01*
X91859124Y-85295562D01*
X91835315Y-85247943D01*
X91811505Y-85152705D01*
X91811505Y-85081276D01*
X91835315Y-84986038D01*
X91859124Y-84938419D01*
X91906743Y-84890800D01*
X91978172Y-84866990D01*
X92025791Y-84866990D01*
X92097219Y-84890800D01*
X92121029Y-84914610D01*
X92216267Y-85414610D02*
X92597219Y-85414610D01*
X92716267Y-85366990D02*
X92716267Y-84866990D01*
X92835314Y-84866990D01*
X92906743Y-84890800D01*
X92954362Y-84938419D01*
X92978171Y-84986038D01*
X93001981Y-85081276D01*
X93001981Y-85152705D01*
X92978171Y-85247943D01*
X92954362Y-85295562D01*
X92906743Y-85343181D01*
X92835314Y-85366990D01*
X92716267Y-85366990D01*
X78667125Y-80388590D02*
X78667125Y-79888590D01*
X78881410Y-79936210D02*
X78905220Y-79912400D01*
X78952839Y-79888590D01*
X79071886Y-79888590D01*
X79119505Y-79912400D01*
X79143315Y-79936210D01*
X79167124Y-79983829D01*
X79167124Y-80031448D01*
X79143315Y-80102876D01*
X78857601Y-80388590D01*
X79167124Y-80388590D01*
X79357600Y-80364781D02*
X79429029Y-80388590D01*
X79548076Y-80388590D01*
X79595695Y-80364781D01*
X79619505Y-80340971D01*
X79643314Y-80293352D01*
X79643314Y-80245733D01*
X79619505Y-80198114D01*
X79595695Y-80174305D01*
X79548076Y-80150495D01*
X79452838Y-80126686D01*
X79405219Y-80102876D01*
X79381410Y-80079067D01*
X79357600Y-80031448D01*
X79357600Y-79983829D01*
X79381410Y-79936210D01*
X79405219Y-79912400D01*
X79452838Y-79888590D01*
X79571886Y-79888590D01*
X79643314Y-79912400D01*
X79738552Y-80436210D02*
X80119504Y-80436210D01*
X80190933Y-79888590D02*
X80309980Y-80388590D01*
X80405218Y-80031448D01*
X80500456Y-80388590D01*
X80619504Y-79888590D01*
X80786171Y-80364781D02*
X80857600Y-80388590D01*
X80976647Y-80388590D01*
X81024266Y-80364781D01*
X81048076Y-80340971D01*
X81071885Y-80293352D01*
X81071885Y-80245733D01*
X81048076Y-80198114D01*
X81024266Y-80174305D01*
X80976647Y-80150495D01*
X80881409Y-80126686D01*
X80833790Y-80102876D01*
X80809981Y-80079067D01*
X80786171Y-80031448D01*
X80786171Y-79983829D01*
X80809981Y-79936210D01*
X80833790Y-79912400D01*
X80881409Y-79888590D01*
X81000457Y-79888590D01*
X81071885Y-79912400D01*
D18*
X65716305Y-93581600D02*
X65621067Y-93533981D01*
X65478210Y-93533981D01*
X65335352Y-93581600D01*
X65240114Y-93676838D01*
X65192495Y-93772076D01*
X65144876Y-93962552D01*
X65144876Y-94105410D01*
X65192495Y-94295886D01*
X65240114Y-94391124D01*
X65335352Y-94486362D01*
X65478210Y-94533981D01*
X65573448Y-94533981D01*
X65716305Y-94486362D01*
X65763924Y-94438743D01*
X65763924Y-94105410D01*
X65573448Y-94105410D01*
X66192495Y-94533981D02*
X66192495Y-93533981D01*
X66763924Y-94533981D01*
X66763924Y-93533981D01*
X67240114Y-94533981D02*
X67240114Y-93533981D01*
X67478209Y-93533981D01*
X67621067Y-93581600D01*
X67716305Y-93676838D01*
X67763924Y-93772076D01*
X67811543Y-93962552D01*
X67811543Y-94105410D01*
X67763924Y-94295886D01*
X67716305Y-94391124D01*
X67621067Y-94486362D01*
X67478209Y-94533981D01*
X67240114Y-94533981D01*
X68430590Y-93533981D02*
X68525829Y-93533981D01*
X68621067Y-93581600D01*
X68668686Y-93629219D01*
X68716305Y-93724457D01*
X68763924Y-93914933D01*
X68763924Y-94153029D01*
X68716305Y-94343505D01*
X68668686Y-94438743D01*
X68621067Y-94486362D01*
X68525829Y-94533981D01*
X68430590Y-94533981D01*
X68335352Y-94486362D01*
X68287733Y-94438743D01*
X68240114Y-94343505D01*
X68192495Y-94153029D01*
X68192495Y-93914933D01*
X68240114Y-93724457D01*
X68287733Y-93629219D01*
X68335352Y-93581600D01*
X68430590Y-93533981D01*
D10*
X68460325Y-63905581D02*
X68531754Y-63929390D01*
X68650801Y-63929390D01*
X68698420Y-63905581D01*
X68722230Y-63881771D01*
X68746039Y-63834152D01*
X68746039Y-63786533D01*
X68722230Y-63738914D01*
X68698420Y-63715105D01*
X68650801Y-63691295D01*
X68555563Y-63667486D01*
X68507944Y-63643676D01*
X68484135Y-63619867D01*
X68460325Y-63572248D01*
X68460325Y-63524629D01*
X68484135Y-63477010D01*
X68507944Y-63453200D01*
X68555563Y-63429390D01*
X68674611Y-63429390D01*
X68746039Y-63453200D01*
X68960325Y-63929390D02*
X68960325Y-63429390D01*
X69150801Y-63429390D01*
X69198420Y-63453200D01*
X69222229Y-63477010D01*
X69246039Y-63524629D01*
X69246039Y-63596057D01*
X69222229Y-63643676D01*
X69198420Y-63667486D01*
X69150801Y-63691295D01*
X68960325Y-63691295D01*
X69460325Y-63929390D02*
X69460325Y-63429390D01*
X69579372Y-63977010D02*
X69960324Y-63977010D01*
X70079372Y-63929390D02*
X70079372Y-63429390D01*
X70365086Y-63929390D01*
X70365086Y-63429390D01*
X70579372Y-63905581D02*
X70650801Y-63929390D01*
X70769848Y-63929390D01*
X70817467Y-63905581D01*
X70841277Y-63881771D01*
X70865086Y-63834152D01*
X70865086Y-63786533D01*
X70841277Y-63738914D01*
X70817467Y-63715105D01*
X70769848Y-63691295D01*
X70674610Y-63667486D01*
X70626991Y-63643676D01*
X70603182Y-63619867D01*
X70579372Y-63572248D01*
X70579372Y-63524629D01*
X70603182Y-63477010D01*
X70626991Y-63453200D01*
X70674610Y-63429390D01*
X70793658Y-63429390D01*
X70865086Y-63453200D01*
X71055562Y-63905581D02*
X71126991Y-63929390D01*
X71246038Y-63929390D01*
X71293657Y-63905581D01*
X71317467Y-63881771D01*
X71341276Y-63834152D01*
X71341276Y-63786533D01*
X71317467Y-63738914D01*
X71293657Y-63715105D01*
X71246038Y-63691295D01*
X71150800Y-63667486D01*
X71103181Y-63643676D01*
X71079372Y-63619867D01*
X71055562Y-63572248D01*
X71055562Y-63524629D01*
X71079372Y-63477010D01*
X71103181Y-63453200D01*
X71150800Y-63429390D01*
X71269848Y-63429390D01*
X71341276Y-63453200D01*
X74337220Y-81583981D02*
X74408649Y-81607790D01*
X74527696Y-81607790D01*
X74575315Y-81583981D01*
X74599125Y-81560171D01*
X74622934Y-81512552D01*
X74622934Y-81464933D01*
X74599125Y-81417314D01*
X74575315Y-81393505D01*
X74527696Y-81369695D01*
X74432458Y-81345886D01*
X74384839Y-81322076D01*
X74361030Y-81298267D01*
X74337220Y-81250648D01*
X74337220Y-81203029D01*
X74361030Y-81155410D01*
X74384839Y-81131600D01*
X74432458Y-81107790D01*
X74551506Y-81107790D01*
X74622934Y-81131600D01*
X74837220Y-81607790D02*
X74837220Y-81107790D01*
X75027696Y-81107790D01*
X75075315Y-81131600D01*
X75099124Y-81155410D01*
X75122934Y-81203029D01*
X75122934Y-81274457D01*
X75099124Y-81322076D01*
X75075315Y-81345886D01*
X75027696Y-81369695D01*
X74837220Y-81369695D01*
X75337220Y-81607790D02*
X75337220Y-81107790D01*
X75456267Y-81655410D02*
X75837219Y-81655410D01*
X76241981Y-81560171D02*
X76218171Y-81583981D01*
X76146743Y-81607790D01*
X76099124Y-81607790D01*
X76027695Y-81583981D01*
X75980076Y-81536362D01*
X75956267Y-81488743D01*
X75932457Y-81393505D01*
X75932457Y-81322076D01*
X75956267Y-81226838D01*
X75980076Y-81179219D01*
X76027695Y-81131600D01*
X76099124Y-81107790D01*
X76146743Y-81107790D01*
X76218171Y-81131600D01*
X76241981Y-81155410D01*
X76456267Y-81607790D02*
X76456267Y-81107790D01*
X76741981Y-81607790D02*
X76527695Y-81322076D01*
X76741981Y-81107790D02*
X76456267Y-81393505D01*
X76058058Y-80517181D02*
X76129487Y-80540990D01*
X76248534Y-80540990D01*
X76296153Y-80517181D01*
X76319963Y-80493371D01*
X76343772Y-80445752D01*
X76343772Y-80398133D01*
X76319963Y-80350514D01*
X76296153Y-80326705D01*
X76248534Y-80302895D01*
X76153296Y-80279086D01*
X76105677Y-80255276D01*
X76081868Y-80231467D01*
X76058058Y-80183848D01*
X76058058Y-80136229D01*
X76081868Y-80088610D01*
X76105677Y-80064800D01*
X76153296Y-80040990D01*
X76272344Y-80040990D01*
X76343772Y-80064800D01*
X76558058Y-80540990D02*
X76558058Y-80040990D01*
X76748534Y-80040990D01*
X76796153Y-80064800D01*
X76819962Y-80088610D01*
X76843772Y-80136229D01*
X76843772Y-80207657D01*
X76819962Y-80255276D01*
X76796153Y-80279086D01*
X76748534Y-80302895D01*
X76558058Y-80302895D01*
X77058058Y-80540990D02*
X77058058Y-80040990D01*
X77177105Y-80588610D02*
X77558057Y-80588610D01*
X77677105Y-80540990D02*
X77677105Y-80040990D01*
X77843771Y-80398133D01*
X78010438Y-80040990D01*
X78010438Y-80540990D01*
X78248534Y-80540990D02*
X78248534Y-80040990D01*
X72664000Y-80618781D02*
X72735429Y-80642590D01*
X72854476Y-80642590D01*
X72902095Y-80618781D01*
X72925905Y-80594971D01*
X72949714Y-80547352D01*
X72949714Y-80499733D01*
X72925905Y-80452114D01*
X72902095Y-80428305D01*
X72854476Y-80404495D01*
X72759238Y-80380686D01*
X72711619Y-80356876D01*
X72687810Y-80333067D01*
X72664000Y-80285448D01*
X72664000Y-80237829D01*
X72687810Y-80190210D01*
X72711619Y-80166400D01*
X72759238Y-80142590D01*
X72878286Y-80142590D01*
X72949714Y-80166400D01*
X73164000Y-80642590D02*
X73164000Y-80142590D01*
X73354476Y-80142590D01*
X73402095Y-80166400D01*
X73425904Y-80190210D01*
X73449714Y-80237829D01*
X73449714Y-80309257D01*
X73425904Y-80356876D01*
X73402095Y-80380686D01*
X73354476Y-80404495D01*
X73164000Y-80404495D01*
X73664000Y-80642590D02*
X73664000Y-80142590D01*
X73783047Y-80690210D02*
X74163999Y-80690210D01*
X74283047Y-80642590D02*
X74283047Y-80142590D01*
X74449713Y-80499733D01*
X74616380Y-80142590D01*
X74616380Y-80642590D01*
X74949714Y-80142590D02*
X75044952Y-80142590D01*
X75092571Y-80166400D01*
X75140190Y-80214019D01*
X75163999Y-80309257D01*
X75163999Y-80475924D01*
X75140190Y-80571162D01*
X75092571Y-80618781D01*
X75044952Y-80642590D01*
X74949714Y-80642590D01*
X74902095Y-80618781D01*
X74854476Y-80571162D01*
X74830666Y-80475924D01*
X74830666Y-80309257D01*
X74854476Y-80214019D01*
X74902095Y-80166400D01*
X74949714Y-80142590D01*
D18*
X62531667Y-59948381D02*
X62531667Y-60662667D01*
X62484047Y-60805524D01*
X62388809Y-60900762D01*
X62245952Y-60948381D01*
X62150714Y-60948381D01*
X62912619Y-59948381D02*
X63531667Y-59948381D01*
X63198333Y-60329333D01*
X63341191Y-60329333D01*
X63436429Y-60376952D01*
X63484048Y-60424571D01*
X63531667Y-60519810D01*
X63531667Y-60757905D01*
X63484048Y-60853143D01*
X63436429Y-60900762D01*
X63341191Y-60948381D01*
X63055476Y-60948381D01*
X62960238Y-60900762D01*
X62912619Y-60853143D01*
X115043105Y-92514800D02*
X114947867Y-92467181D01*
X114805010Y-92467181D01*
X114662152Y-92514800D01*
X114566914Y-92610038D01*
X114519295Y-92705276D01*
X114471676Y-92895752D01*
X114471676Y-93038610D01*
X114519295Y-93229086D01*
X114566914Y-93324324D01*
X114662152Y-93419562D01*
X114805010Y-93467181D01*
X114900248Y-93467181D01*
X115043105Y-93419562D01*
X115090724Y-93371943D01*
X115090724Y-93038610D01*
X114900248Y-93038610D01*
X115519295Y-93467181D02*
X115519295Y-92467181D01*
X116090724Y-93467181D01*
X116090724Y-92467181D01*
X116566914Y-93467181D02*
X116566914Y-92467181D01*
X116805009Y-92467181D01*
X116947867Y-92514800D01*
X117043105Y-92610038D01*
X117090724Y-92705276D01*
X117138343Y-92895752D01*
X117138343Y-93038610D01*
X117090724Y-93229086D01*
X117043105Y-93324324D01*
X116947867Y-93419562D01*
X116805009Y-93467181D01*
X116566914Y-93467181D01*
X117471676Y-92467181D02*
X118090724Y-92467181D01*
X117757390Y-92848133D01*
X117900248Y-92848133D01*
X117995486Y-92895752D01*
X118043105Y-92943371D01*
X118090724Y-93038610D01*
X118090724Y-93276705D01*
X118043105Y-93371943D01*
X117995486Y-93419562D01*
X117900248Y-93467181D01*
X117614533Y-93467181D01*
X117519295Y-93419562D01*
X117471676Y-93371943D01*
X116363905Y-37904800D02*
X116268667Y-37857181D01*
X116125810Y-37857181D01*
X115982952Y-37904800D01*
X115887714Y-38000038D01*
X115840095Y-38095276D01*
X115792476Y-38285752D01*
X115792476Y-38428610D01*
X115840095Y-38619086D01*
X115887714Y-38714324D01*
X115982952Y-38809562D01*
X116125810Y-38857181D01*
X116221048Y-38857181D01*
X116363905Y-38809562D01*
X116411524Y-38761943D01*
X116411524Y-38428610D01*
X116221048Y-38428610D01*
X116840095Y-38857181D02*
X116840095Y-37857181D01*
X117411524Y-38857181D01*
X117411524Y-37857181D01*
X117887714Y-38857181D02*
X117887714Y-37857181D01*
X118125809Y-37857181D01*
X118268667Y-37904800D01*
X118363905Y-38000038D01*
X118411524Y-38095276D01*
X118459143Y-38285752D01*
X118459143Y-38428610D01*
X118411524Y-38619086D01*
X118363905Y-38714324D01*
X118268667Y-38809562D01*
X118125809Y-38857181D01*
X117887714Y-38857181D01*
X118840095Y-37952419D02*
X118887714Y-37904800D01*
X118982952Y-37857181D01*
X119221048Y-37857181D01*
X119316286Y-37904800D01*
X119363905Y-37952419D01*
X119411524Y-38047657D01*
X119411524Y-38142895D01*
X119363905Y-38285752D01*
X118792476Y-38857181D01*
X119411524Y-38857181D01*
X59061505Y-43696000D02*
X58966267Y-43648381D01*
X58823410Y-43648381D01*
X58680552Y-43696000D01*
X58585314Y-43791238D01*
X58537695Y-43886476D01*
X58490076Y-44076952D01*
X58490076Y-44219810D01*
X58537695Y-44410286D01*
X58585314Y-44505524D01*
X58680552Y-44600762D01*
X58823410Y-44648381D01*
X58918648Y-44648381D01*
X59061505Y-44600762D01*
X59109124Y-44553143D01*
X59109124Y-44219810D01*
X58918648Y-44219810D01*
X59537695Y-44648381D02*
X59537695Y-43648381D01*
X60109124Y-44648381D01*
X60109124Y-43648381D01*
X60585314Y-44648381D02*
X60585314Y-43648381D01*
X60823409Y-43648381D01*
X60966267Y-43696000D01*
X61061505Y-43791238D01*
X61109124Y-43886476D01*
X61156743Y-44076952D01*
X61156743Y-44219810D01*
X61109124Y-44410286D01*
X61061505Y-44505524D01*
X60966267Y-44600762D01*
X60823409Y-44648381D01*
X60585314Y-44648381D01*
X62109124Y-44648381D02*
X61537695Y-44648381D01*
X61823409Y-44648381D02*
X61823409Y-43648381D01*
X61728171Y-43791238D01*
X61632933Y-43886476D01*
X61537695Y-43934095D01*
D17*
X96856917Y-68673331D02*
X96856917Y-69192450D01*
X96887454Y-69253523D01*
X96917990Y-69284059D01*
X96979063Y-69314596D01*
X97101209Y-69314596D01*
X97162281Y-69284059D01*
X97192818Y-69253523D01*
X97223354Y-69192450D01*
X97223354Y-68673331D01*
X97834082Y-68673331D02*
X97528718Y-68673331D01*
X97498182Y-68978695D01*
X97528718Y-68948158D01*
X97589791Y-68917622D01*
X97742473Y-68917622D01*
X97803546Y-68948158D01*
X97834082Y-68978695D01*
X97864619Y-69039768D01*
X97864619Y-69192450D01*
X97834082Y-69253523D01*
X97803546Y-69284059D01*
X97742473Y-69314596D01*
X97589791Y-69314596D01*
X97528718Y-69284059D01*
X97498182Y-69253523D01*
X100407955Y-81905546D02*
X100407955Y-82295000D01*
X100430864Y-82340818D01*
X100453773Y-82363727D01*
X100499591Y-82386636D01*
X100591228Y-82386636D01*
X100637046Y-82363727D01*
X100659955Y-82340818D01*
X100682864Y-82295000D01*
X100682864Y-81905546D01*
X100866136Y-81905546D02*
X101163954Y-81905546D01*
X101003590Y-82088818D01*
X101072318Y-82088818D01*
X101118136Y-82111727D01*
X101141045Y-82134636D01*
X101163954Y-82180455D01*
X101163954Y-82295000D01*
X101141045Y-82340818D01*
X101118136Y-82363727D01*
X101072318Y-82386636D01*
X100934863Y-82386636D01*
X100889045Y-82363727D01*
X100866136Y-82340818D01*
X98460780Y-87847721D02*
X98231600Y-87847721D01*
X98231600Y-87366443D01*
X98621206Y-87847721D02*
X98621206Y-87366443D01*
X98827468Y-87824803D02*
X98896222Y-87847721D01*
X99010812Y-87847721D01*
X99056648Y-87824803D01*
X99079566Y-87801885D01*
X99102484Y-87756049D01*
X99102484Y-87710213D01*
X99079566Y-87664377D01*
X99056648Y-87641459D01*
X99010812Y-87618541D01*
X98919140Y-87595623D01*
X98873304Y-87572705D01*
X98850386Y-87549787D01*
X98827468Y-87503951D01*
X98827468Y-87458115D01*
X98850386Y-87412279D01*
X98873304Y-87389361D01*
X98919140Y-87366443D01*
X99033730Y-87366443D01*
X99102484Y-87389361D01*
X99262910Y-87366443D02*
X99560844Y-87366443D01*
X99400418Y-87549787D01*
X99469172Y-87549787D01*
X99515008Y-87572705D01*
X99537926Y-87595623D01*
X99560844Y-87641459D01*
X99560844Y-87756049D01*
X99537926Y-87801885D01*
X99515008Y-87824803D01*
X99469172Y-87847721D01*
X99331664Y-87847721D01*
X99285828Y-87824803D01*
X99262910Y-87801885D01*
X99767106Y-87847721D02*
X99767106Y-87366443D01*
X99881696Y-87366443D01*
X99950450Y-87389361D01*
X99996286Y-87435197D01*
X100019204Y-87481033D01*
X100042122Y-87572705D01*
X100042122Y-87641459D01*
X100019204Y-87733131D01*
X99996286Y-87778967D01*
X99950450Y-87824803D01*
X99881696Y-87847721D01*
X99767106Y-87847721D01*
X100248384Y-87847721D02*
X100248384Y-87366443D01*
X100248384Y-87595623D02*
X100523400Y-87595623D01*
X100523400Y-87847721D02*
X100523400Y-87366443D01*
M02*
