G04 #@! TF.FileFunction,Soldermask,Bot*
%FSLAX46Y46*%
G04 Gerber Fmt 4.6, Leading zero omitted, Abs format (unit mm)*
G04 Created by KiCad (PCBNEW 4.0.6) date 05/01/18 07:54:48*
%MOMM*%
%LPD*%
G01*
G04 APERTURE LIST*
%ADD10C,0.100000*%
%ADD11R,0.851600X1.301600*%
%ADD12R,0.701600X0.601600*%
%ADD13R,0.601600X0.701600*%
%ADD14R,1.001600X1.301600*%
%ADD15R,1.301600X1.001600*%
%ADD16R,1.901600X1.301600*%
%ADD17R,0.701600X0.501600*%
%ADD18C,2.601600*%
G04 APERTURE END LIST*
D10*
D11*
X106807000Y-63883500D03*
X106807000Y-65783500D03*
D12*
X93303000Y-37020500D03*
X94403000Y-37020500D03*
X115167500Y-60833000D03*
X114067500Y-60833000D03*
X82719000Y-94170500D03*
X81619000Y-94170500D03*
X103526500Y-39941500D03*
X104626500Y-39941500D03*
D13*
X117094000Y-73765500D03*
X117094000Y-72665500D03*
X72263000Y-90974000D03*
X72263000Y-89874000D03*
X112585500Y-46948000D03*
X112585500Y-48048000D03*
D12*
X107463500Y-87249000D03*
X108563500Y-87249000D03*
X69173000Y-87566500D03*
X70273000Y-87566500D03*
D13*
X118237000Y-54631500D03*
X118237000Y-55731500D03*
D12*
X97430500Y-93662500D03*
X98530500Y-93662500D03*
X63669000Y-72009000D03*
X62569000Y-72009000D03*
D14*
X93535500Y-75522000D03*
X93535500Y-73322000D03*
X92710000Y-68242000D03*
X92710000Y-70442000D03*
X89027000Y-46693000D03*
X89027000Y-44493000D03*
X87376000Y-77744500D03*
X87376000Y-75544500D03*
X91376500Y-75522000D03*
X91376500Y-73322000D03*
D15*
X101008000Y-52514500D03*
X103208000Y-52514500D03*
X101071500Y-50165000D03*
X103271500Y-50165000D03*
X97579000Y-70929500D03*
X99779000Y-70929500D03*
X104056000Y-59563000D03*
X106256000Y-59563000D03*
D14*
X119761000Y-67416500D03*
X119761000Y-69616500D03*
X119761000Y-61447500D03*
X119761000Y-63647500D03*
D16*
X85651000Y-37700000D03*
X90451000Y-37700000D03*
X90451000Y-39300000D03*
X85651000Y-39300000D03*
X85651000Y-40900000D03*
X90451000Y-40900000D03*
X111751000Y-63800000D03*
X116551000Y-63800000D03*
X116551000Y-65400000D03*
X111751000Y-65400000D03*
X111751000Y-67000000D03*
X116551000Y-67000000D03*
X90451000Y-93100000D03*
X85651000Y-93100000D03*
X85651000Y-91500000D03*
X90451000Y-91500000D03*
X90451000Y-89900000D03*
X85651000Y-89900000D03*
X95651000Y-39700000D03*
X100451000Y-39700000D03*
X100451000Y-41300000D03*
X95651000Y-41300000D03*
X95651000Y-42900000D03*
X100451000Y-42900000D03*
X109751000Y-73800000D03*
X114551000Y-73800000D03*
X114551000Y-75400000D03*
X109751000Y-75400000D03*
X109751000Y-77000000D03*
X114551000Y-77000000D03*
X80451000Y-91100000D03*
X75651000Y-91100000D03*
X75651000Y-89500000D03*
X80451000Y-89500000D03*
X80451000Y-87900000D03*
X75651000Y-87900000D03*
X104051000Y-45300000D03*
X108851000Y-45300000D03*
X108851000Y-46900000D03*
X104051000Y-46900000D03*
X104051000Y-48500000D03*
X108851000Y-48500000D03*
X108826000Y-85420000D03*
X104026000Y-85420000D03*
X104026000Y-83820000D03*
X108826000Y-83820000D03*
X108826000Y-82220000D03*
X104026000Y-82220000D03*
X71951000Y-85400000D03*
X67151000Y-85400000D03*
X67151000Y-83800000D03*
X71951000Y-83800000D03*
X71951000Y-82200000D03*
X67151000Y-82200000D03*
X109751000Y-53800000D03*
X114551000Y-53800000D03*
X114551000Y-55400000D03*
X109751000Y-55400000D03*
X109751000Y-57000000D03*
X114551000Y-57000000D03*
X100451000Y-91100000D03*
X95651000Y-91100000D03*
X95651000Y-89500000D03*
X100451000Y-89500000D03*
X100451000Y-87900000D03*
X95651000Y-87900000D03*
X61544500Y-73774500D03*
X66344500Y-73774500D03*
X66344500Y-75374500D03*
X61544500Y-75374500D03*
X61544500Y-76974500D03*
X66344500Y-76974500D03*
D17*
X124968000Y-60891000D03*
X124968000Y-61791000D03*
X124968000Y-69209500D03*
X124968000Y-70109500D03*
D18*
X59055000Y-37719000D03*
X59055000Y-93027500D03*
X178943000Y-37719000D03*
X178879500Y-93027500D03*
D12*
X61426000Y-69723000D03*
X62526000Y-69723000D03*
X64240500Y-51752500D03*
X63140500Y-51752500D03*
D13*
X71945500Y-43476000D03*
X71945500Y-42376000D03*
D12*
X81301500Y-36830000D03*
X82401500Y-36830000D03*
D16*
X64351000Y-67000000D03*
X59551000Y-67000000D03*
X59551000Y-65400000D03*
X64351000Y-65400000D03*
X64351000Y-63800000D03*
X59551000Y-63800000D03*
X61544500Y-53772000D03*
X66344500Y-53772000D03*
X66344500Y-55372000D03*
X61544500Y-55372000D03*
X61544500Y-56972000D03*
X66344500Y-56972000D03*
X67132500Y-45326500D03*
X71932500Y-45326500D03*
X71932500Y-46926500D03*
X67132500Y-46926500D03*
X67132500Y-48526500D03*
X71932500Y-48526500D03*
X75641500Y-39675000D03*
X80441500Y-39675000D03*
X80441500Y-41275000D03*
X75641500Y-41275000D03*
X75641500Y-42875000D03*
X80441500Y-42875000D03*
M02*
