G04 #@! TF.FileFunction,Paste,Top*
%FSLAX46Y46*%
G04 Gerber Fmt 4.6, Leading zero omitted, Abs format (unit mm)*
G04 Created by KiCad (PCBNEW 4.0.6) date 04/30/18 08:06:27*
%MOMM*%
%LPD*%
G01*
G04 APERTURE LIST*
%ADD10C,0.100000*%
%ADD11C,0.381000*%
%ADD12R,1.000000X0.750000*%
%ADD13R,1.066800X0.254000*%
%ADD14R,1.400000X1.200000*%
%ADD15R,0.279400X1.473200*%
%ADD16R,1.473200X0.279400*%
%ADD17R,1.473200X0.355600*%
%ADD18R,2.997200X2.997200*%
%ADD19R,0.304800X1.500000*%
%ADD20R,1.500000X0.304800*%
%ADD21R,1.447800X1.447800*%
%ADD22R,0.600000X0.500000*%
%ADD23R,0.500000X0.600000*%
%ADD24R,0.750000X1.200000*%
%ADD25R,1.600000X2.000000*%
%ADD26R,1.200000X0.750000*%
%ADD27R,0.900000X1.200000*%
%ADD28R,2.250000X5.000000*%
%ADD29R,1.240000X0.800000*%
%ADD30R,2.500000X0.950000*%
%ADD31R,2.200000X1.150000*%
%ADD32R,1.250000X1.160000*%
%ADD33R,1.200000X1.160000*%
%ADD34R,1.150000X1.500000*%
%ADD35R,2.900000X5.400000*%
%ADD36R,1.200000X0.900000*%
%ADD37R,0.650000X1.060000*%
%ADD38R,0.750000X1.000000*%
%ADD39R,3.500000X1.500000*%
%ADD40R,3.000000X1.000000*%
%ADD41R,1.500000X3.500000*%
%ADD42R,4.000000X4.000000*%
%ADD43R,0.250000X1.500000*%
%ADD44R,1.500000X0.250000*%
%ADD45R,0.350000X1.520000*%
%ADD46R,1.520000X0.350000*%
G04 APERTURE END LIST*
D10*
D11*
G36*
X102450540Y-66760500D02*
X101447500Y-66760500D01*
X101447500Y-65761852D01*
X102450540Y-65761852D01*
X102450540Y-66760500D01*
G37*
X102450540Y-66760500D02*
X101447500Y-66760500D01*
X101447500Y-65761852D01*
X102450540Y-65761852D01*
X102450540Y-66760500D01*
G36*
X101147883Y-66760500D02*
X100147500Y-66760500D01*
X100147500Y-65761113D01*
X101147883Y-65761113D01*
X101147883Y-66760500D01*
G37*
X101147883Y-66760500D02*
X100147500Y-66760500D01*
X100147500Y-65761113D01*
X101147883Y-65761113D01*
X101147883Y-66760500D01*
G36*
X99846494Y-66760500D02*
X98847500Y-66760500D01*
X98847500Y-65761506D01*
X99846494Y-65761506D01*
X99846494Y-66760500D01*
G37*
X99846494Y-66760500D02*
X98847500Y-66760500D01*
X98847500Y-65761506D01*
X99846494Y-65761506D01*
X99846494Y-66760500D01*
G36*
X102449290Y-65460500D02*
X101447500Y-65460500D01*
X101447500Y-64460003D01*
X102449290Y-64460003D01*
X102449290Y-65460500D01*
G37*
X102449290Y-65460500D02*
X101447500Y-65460500D01*
X101447500Y-64460003D01*
X102449290Y-64460003D01*
X102449290Y-65460500D01*
G36*
X102449290Y-64160500D02*
X101447500Y-64160500D01*
X101447500Y-63158710D01*
X102449290Y-63158710D01*
X102449290Y-64160500D01*
G37*
X102449290Y-64160500D02*
X101447500Y-64160500D01*
X101447500Y-63158710D01*
X102449290Y-63158710D01*
X102449290Y-64160500D01*
G36*
X101147753Y-65460500D02*
X100147500Y-65460500D01*
X100147500Y-64460247D01*
X101147753Y-64460247D01*
X101147753Y-65460500D01*
G37*
X101147753Y-65460500D02*
X100147500Y-65460500D01*
X100147500Y-64460247D01*
X101147753Y-64460247D01*
X101147753Y-65460500D01*
G36*
X101147704Y-64160500D02*
X100147500Y-64160500D01*
X100147500Y-63159770D01*
X101147704Y-63159770D01*
X101147704Y-64160500D01*
G37*
X101147704Y-64160500D02*
X100147500Y-64160500D01*
X100147500Y-63159770D01*
X101147704Y-63159770D01*
X101147704Y-64160500D01*
G36*
X99846355Y-64160500D02*
X98847500Y-64160500D01*
X98847500Y-63157920D01*
X99846355Y-63157920D01*
X99846355Y-64160500D01*
G37*
X99846355Y-64160500D02*
X98847500Y-64160500D01*
X98847500Y-63157920D01*
X99846355Y-63157920D01*
X99846355Y-64160500D01*
G36*
X99846008Y-65460500D02*
X98847500Y-65460500D01*
X98847500Y-64459567D01*
X99846008Y-64459567D01*
X99846008Y-65460500D01*
G37*
X99846008Y-65460500D02*
X98847500Y-65460500D01*
X98847500Y-64459567D01*
X99846008Y-64459567D01*
X99846008Y-65460500D01*
D12*
X122682000Y-89408000D03*
X123037600Y-41605200D03*
D13*
X77000100Y-62928500D03*
X77000100Y-63436500D03*
X77000100Y-63944500D03*
X77000100Y-64452500D03*
X79844900Y-64452500D03*
X79844900Y-63944500D03*
X79844900Y-63436500D03*
X79844900Y-62928500D03*
D14*
X98128000Y-57873000D03*
X95928000Y-57873000D03*
X98128000Y-56173000D03*
X95928000Y-56173000D03*
D15*
X86436200Y-68364100D03*
X85953600Y-68364100D03*
X85445600Y-68364100D03*
X84937600Y-68364100D03*
X84455000Y-68364100D03*
X83947000Y-68364100D03*
X83439000Y-68364100D03*
X82931000Y-68364100D03*
X82448400Y-68364100D03*
X81940400Y-68364100D03*
X81432400Y-68364100D03*
X80949800Y-68364100D03*
D16*
X79476600Y-69837300D03*
X79476600Y-70319900D03*
X79476600Y-70827900D03*
X79476600Y-71335900D03*
X79476600Y-71818500D03*
X79476600Y-72326500D03*
X79476600Y-72834500D03*
X79476600Y-73342500D03*
X79476600Y-73825100D03*
X79476600Y-74333100D03*
X79476600Y-74841100D03*
X79476600Y-75323700D03*
D15*
X80949800Y-76796900D03*
X81432400Y-76796900D03*
X81940400Y-76796900D03*
X82448400Y-76796900D03*
X82931000Y-76796900D03*
X83439000Y-76796900D03*
X83947000Y-76796900D03*
X84455000Y-76796900D03*
X84937600Y-76796900D03*
X85445600Y-76796900D03*
X85953600Y-76796900D03*
X86436200Y-76796900D03*
D16*
X87909400Y-75323700D03*
X87909400Y-74841100D03*
X87909400Y-74333100D03*
X87909400Y-73825100D03*
X87909400Y-73342500D03*
X87909400Y-72834500D03*
X87909400Y-72326500D03*
X87909400Y-71818500D03*
X87909400Y-71335900D03*
X87909400Y-70827900D03*
X87909400Y-70319900D03*
X87909400Y-69837300D03*
D17*
X81534000Y-38163500D03*
X81534000Y-38823900D03*
X81534000Y-39484300D03*
X81534000Y-40119300D03*
X81534000Y-40779700D03*
X81534000Y-41414700D03*
X81534000Y-42075100D03*
X81534000Y-42735500D03*
X87376000Y-42735500D03*
X87376000Y-42075100D03*
X87376000Y-41414700D03*
X87376000Y-40779700D03*
X87376000Y-40119300D03*
X87376000Y-39484300D03*
X87376000Y-38823900D03*
X87376000Y-38163500D03*
D18*
X84455000Y-40449500D03*
D19*
X106680000Y-49035400D03*
X107188000Y-49035400D03*
X107696000Y-49035400D03*
X108204000Y-49035400D03*
D20*
X109233400Y-48006000D03*
X109233400Y-47498000D03*
X109233400Y-46990000D03*
X109233400Y-46482000D03*
D19*
X108204000Y-45452600D03*
X107696000Y-45452600D03*
X107188000Y-45452600D03*
X106680000Y-45452600D03*
D20*
X105650600Y-46482000D03*
X105650600Y-46990000D03*
X105650600Y-47498000D03*
X105650600Y-48006000D03*
D21*
X107442000Y-47244000D03*
D22*
X83206500Y-65976500D03*
X84306500Y-65976500D03*
D23*
X91567000Y-68855500D03*
X91567000Y-69955500D03*
D22*
X88307000Y-78994000D03*
X87207000Y-78994000D03*
D23*
X76962000Y-76178500D03*
X76962000Y-75078500D03*
X73406000Y-39348500D03*
X73406000Y-38248500D03*
D22*
X86064000Y-65976500D03*
X87164000Y-65976500D03*
D24*
X73279000Y-42738000D03*
X73279000Y-44638000D03*
X90932000Y-39309000D03*
X90932000Y-41209000D03*
D25*
X94043500Y-38322500D03*
X94043500Y-42322500D03*
D26*
X97919500Y-42291000D03*
X99819500Y-42291000D03*
X98803500Y-50609500D03*
X96903500Y-50609500D03*
D22*
X95779500Y-80708500D03*
X96879500Y-80708500D03*
X102764500Y-87947500D03*
X103864500Y-87947500D03*
D23*
X58039000Y-81809500D03*
X58039000Y-82909500D03*
X111823500Y-46567000D03*
X111823500Y-47667000D03*
D24*
X115379500Y-46611500D03*
X115379500Y-48511500D03*
D23*
X101155500Y-56092000D03*
X101155500Y-57192000D03*
X93027500Y-57827000D03*
X93027500Y-56727000D03*
D26*
X105031500Y-69532500D03*
X106931500Y-69532500D03*
D24*
X105156000Y-71757500D03*
X105156000Y-73657500D03*
D22*
X95101500Y-61849000D03*
X94001500Y-61849000D03*
D23*
X94297500Y-65934500D03*
X94297500Y-67034500D03*
X106426000Y-61446500D03*
X106426000Y-60346500D03*
D22*
X102848500Y-71183500D03*
X101748500Y-71183500D03*
X109559000Y-57658000D03*
X110659000Y-57658000D03*
X113369000Y-55054500D03*
X114469000Y-55054500D03*
D23*
X115316000Y-64240500D03*
X115316000Y-63140500D03*
D22*
X117814000Y-61722000D03*
X118914000Y-61722000D03*
X118004500Y-64960500D03*
X119104500Y-64960500D03*
X119104500Y-68072000D03*
X118004500Y-68072000D03*
X113750000Y-70358000D03*
X114850000Y-70358000D03*
X117877500Y-72898000D03*
X118977500Y-72898000D03*
X82381000Y-61341000D03*
X83481000Y-61341000D03*
D23*
X73850500Y-61045000D03*
X73850500Y-62145000D03*
D27*
X81153000Y-88793500D03*
X81153000Y-86593500D03*
X85344000Y-88730000D03*
X85344000Y-86530000D03*
D28*
X68738500Y-39370000D03*
X64801500Y-39370000D03*
X111537500Y-38608000D03*
X106838500Y-38481000D03*
D29*
X59240500Y-75417000D03*
X59240500Y-74317000D03*
X59240500Y-73217000D03*
X59240500Y-72117000D03*
X59240500Y-71017000D03*
X59240500Y-69917000D03*
X59240500Y-68817000D03*
X59240500Y-67717000D03*
D30*
X59870500Y-79762000D03*
D31*
X59720500Y-65372000D03*
D32*
X61870500Y-65777000D03*
D33*
X70870500Y-65777000D03*
D31*
X71200500Y-79662000D03*
D34*
X71995500Y-75357000D03*
X71995500Y-67577000D03*
D35*
X77727000Y-51943000D03*
X87627000Y-51943000D03*
D36*
X109009000Y-63246000D03*
X111209000Y-63246000D03*
X109009000Y-67437000D03*
X111209000Y-67437000D03*
D27*
X81153000Y-81640500D03*
X81153000Y-83840500D03*
X85344000Y-81640500D03*
X85344000Y-83840500D03*
D36*
X76116000Y-42354500D03*
X78316000Y-42354500D03*
X76052500Y-38798500D03*
X78252500Y-38798500D03*
X72918500Y-57785000D03*
X70718500Y-57785000D03*
D27*
X114681000Y-57320000D03*
X114681000Y-59520000D03*
D37*
X98803500Y-45255000D03*
X97853500Y-45255000D03*
X96903500Y-45255000D03*
X96903500Y-47455000D03*
X98803500Y-47455000D03*
D38*
X94538800Y-45415200D03*
X92151200Y-45415200D03*
X120040400Y-57200800D03*
X119786400Y-75692000D03*
X89306400Y-83718400D03*
X81686400Y-79044800D03*
X79451200Y-81686400D03*
X91846400Y-83718400D03*
X79451200Y-78994000D03*
D39*
X71374000Y-93878400D03*
D38*
X69850000Y-62280800D03*
X75565000Y-79184500D03*
X77012800Y-79197200D03*
X74168000Y-79184500D03*
D40*
X60345000Y-58166000D03*
X65385000Y-58166000D03*
X60345000Y-55626000D03*
X65385000Y-55626000D03*
X60345000Y-53086000D03*
X65385000Y-53086000D03*
X60345000Y-50546000D03*
X65385000Y-50546000D03*
X60345000Y-48006000D03*
X65385000Y-48006000D03*
D39*
X112014000Y-92964000D03*
D41*
X116636800Y-41249600D03*
D39*
X60299600Y-42316400D03*
D42*
X100647500Y-64960500D03*
D43*
X98897500Y-68200500D03*
X98397500Y-68200500D03*
D44*
X97407500Y-67210500D03*
X97407500Y-66710500D03*
X97407500Y-66210500D03*
X97407500Y-65710500D03*
X97407500Y-65210500D03*
X97407500Y-64710500D03*
X97407500Y-64210500D03*
X97407500Y-63710500D03*
X97407500Y-63210500D03*
X97407500Y-62710500D03*
D43*
X98397500Y-61720500D03*
X98897500Y-61720500D03*
X99397500Y-61720500D03*
X99897500Y-61720500D03*
X100397500Y-61720500D03*
X100897500Y-61720500D03*
X101397500Y-61720500D03*
X101897500Y-61720500D03*
X102397500Y-61720500D03*
X102897500Y-61720500D03*
D44*
X103887500Y-62710500D03*
X103887500Y-63210500D03*
X103887500Y-63710500D03*
X103887500Y-64210500D03*
X103887500Y-64710500D03*
X103887500Y-65210500D03*
X103887500Y-65710500D03*
X103887500Y-66210500D03*
X103887500Y-66710500D03*
X103887500Y-67210500D03*
D43*
X99397500Y-68200500D03*
X99897500Y-68200500D03*
X100397500Y-68200500D03*
X100897500Y-68200500D03*
X101397500Y-68200500D03*
X101897500Y-68200500D03*
X102397500Y-68200500D03*
X102897500Y-68200500D03*
D45*
X98877500Y-86307000D03*
X99377500Y-86307000D03*
X99877500Y-86307000D03*
D46*
X101102500Y-85582000D03*
X101102500Y-85082000D03*
X101102500Y-84582000D03*
X101102500Y-84082000D03*
X101102500Y-83582000D03*
D45*
X99877500Y-82857000D03*
X99377500Y-82857000D03*
X98877500Y-82857000D03*
D46*
X97652500Y-83582000D03*
X97652500Y-84082000D03*
X97652500Y-84582000D03*
X97652500Y-85082000D03*
X97652500Y-85582000D03*
M02*
