M48
;DRILL file {KiCad 4.0.6} date 05/01/18 07:54:57
;FORMAT={-:-/ absolute / inch / decimal}
FMAT,2
INCH,TZ
T1C0.016
%
G90
G05
M72
T1
X2.2725Y-2.0925
X2.284Y-2.778
X2.3575Y-3.19
X2.398Y-2.432
X2.415Y-2.5275
X2.474Y-1.492
X2.476Y-1.606
X2.478Y-1.55
X2.4875Y-2.1375
X2.504Y-2.432
X2.524Y-2.77
X2.565Y-2.76
X2.5725Y-2.8325
X2.605Y-1.71
X2.63Y-1.55
X2.68Y-2.29
X2.6925Y-1.9875
X2.705Y-3.09
X2.71Y-3.6
X2.7125Y-2.0175
X2.73Y-2.7625
X2.7305Y-2.2025
X2.7375Y-1.8375
X2.744Y-3.34
X2.75Y-2.506
X2.76Y-1.7075
X2.765Y-2.925
X2.7675Y-2.9675
X2.785Y-2.0025
X2.788Y-3.52
X2.878Y-2.542
X2.8825Y-2.9225
X2.8825Y-3.0075
X2.8875Y-2.66
X2.942Y-3.698
X2.9525Y-2.465
X2.975Y-3.175
X2.9775Y-2.6075
X2.9825Y-2.75
X2.9825Y-3.0075
X2.985Y-2.8575
X3.0175Y-2.6525
X3.03Y-3.0425
X3.0325Y-2.5675
X3.06Y-1.575
X3.06Y-1.63
X3.06Y-2.8925
X3.1275Y-3.0075
X3.136Y-1.414
X3.14Y-2.4475
X3.1425Y-1.5025
X3.16Y-2.415
X3.1775Y-1.7625
X3.185Y-2.805
X3.195Y-2.85
X3.2125Y-2.4975
X3.264Y-2.778
X3.275Y-2.555
X3.286Y-2.636
X3.2925Y-3.49
X3.308Y-2.744
X3.318Y-2.522
X3.33Y-2.636
X3.3375Y-2.75
X3.365Y-2.7725
X3.365Y-2.9475
X3.3775Y-2.855
X3.38Y-1.684
X3.4Y-2.79
X3.405Y-2.825
X3.4325Y-3.15
X3.444Y-1.756
X3.45Y-1.458
X3.474Y-2.598
X3.48Y-2.44
X3.4975Y-1.4825
X3.505Y-1.69
X3.5075Y-3.0625
X3.5375Y-3.0125
X3.5675Y-1.9125
X3.568Y-1.824
X3.6Y-1.418
X3.6Y-2.825
X3.634Y-1.968
X3.642Y-2.5
X3.655Y-2.63
X3.6575Y-2.435
X3.6675Y-2.595
X3.6725Y-3.175
X3.674Y-1.746
X3.7Y-3.04
X3.7075Y-2.6875
X3.7125Y-2.5025
X3.7125Y-3.37
X3.74Y-1.974
X3.7475Y-2.84
X3.748Y-2.048
X3.752Y-2.102
X3.765Y-2.91
X3.7675Y-1.4675
X3.776Y-2.164
X3.7775Y-3.385
X3.785Y-2.7125
X3.815Y-1.945
X3.815Y-3.22
X3.84Y-2.865
X3.8525Y-1.7275
X3.8625Y-2.3375
X3.89Y-1.5625
X3.95Y-2.0225
X3.9625Y-2.85
X3.9675Y-1.8525
X3.97Y-1.895
X3.98Y-3.2525
X4.Y-2.76
X4.035Y-3.355
X4.0575Y-3.525
X4.068Y-1.666
X4.0725Y-2.75
X4.08Y-2.85
X4.0925Y-2.785
X4.094Y-2.686
X4.096Y-2.022
X4.0975Y-2.4325
X4.1425Y-2.4325
X4.1475Y-2.1725
X4.148Y-3.526
X4.16Y-2.515
X4.16Y-2.5775
X4.17Y-2.47
X4.185Y-1.995
X4.19Y-1.72
X4.23Y-1.644
X4.2325Y-2.905
X4.2425Y-2.375
X4.2475Y-2.3125
X4.26Y-1.995
X4.27Y-2.8325
X4.274Y-3.654
X4.2825Y-1.625
X4.2825Y-1.72
X4.31Y-2.77
X4.3125Y-2.5725
X4.3175Y-2.355
X4.3575Y-2.3125
X4.396Y-2.194
X4.398Y-2.416
X4.4325Y-1.7825
X4.4325Y-1.935
X4.4625Y-2.3525
X4.4825Y-2.84
X4.488Y-2.442
X4.5125Y-2.055
X4.552Y-2.438
X4.5675Y-2.78
X4.6425Y-2.775
X4.6475Y-2.645
X4.655Y-2.38
X4.66Y-2.4975
X4.662Y-1.624
X4.718Y-2.328
X4.734Y-2.876
X4.7725Y-2.7175
X4.8325Y-2.4925
X4.875Y-2.535
X4.92Y-2.6475
X6.935Y-2.5625
X6.98Y-2.5175
X7.025Y-2.5175
X7.0675Y-2.56
T0
M30
